<svg xmlns="http://www.w3.org/2000/svg" width="367" height="372" viewBox="0 0 367 372" version="1.1"><path d="M 176.615 35.814 C 176.338 36.262, 173.949 37.718, 171.306 39.051 C 168.663 40.383, 166.275 41.704, 166 41.987 C 165.476 42.524, 163.658 43.581, 156.079 47.749 C 153.560 49.134, 151.050 50.609, 150.500 51.027 C 149.546 51.752, 147.103 53.157, 137 58.793 C 134.525 60.174, 128.128 63.935, 122.784 67.152 C 117.440 70.368, 112.602 73, 112.034 73 C 111.465 73, 111 73.340, 111 73.756 C 111 74.172, 109.537 75.148, 107.750 75.926 C 105.963 76.703, 104.275 77.620, 104 77.962 C 103.725 78.305, 102.150 79.252, 100.500 80.069 C 98.850 80.885, 94.872 83.116, 91.660 85.026 C 82.417 90.524, 79.769 92.051, 75.500 94.348 C 73.300 95.532, 71.275 96.725, 71 97 C 70.488 97.512, 69.071 98.336, 61.079 102.772 C 58.560 104.170, 53.778 106.960, 50.451 108.973 C 47.123 110.985, 43.589 112.944, 42.597 113.324 C 41.443 113.767, 41.017 114.602, 41.416 115.641 C 41.758 116.534, 42.037 151.967, 42.034 194.382 C 42.032 236.797, 42.361 271.954, 42.765 272.509 C 43.625 273.691, 50.195 277.894, 54.500 280.017 C 56.150 280.831, 57.725 281.723, 58 281.998 C 58.636 282.636, 61.932 284.508, 69.513 288.537 C 73.955 290.898, 75.803 291.436, 76.589 290.595 C 77.174 289.969, 77.455 288.865, 77.214 288.142 C 76.948 287.345, 77.605 287.538, 78.883 288.632 L 80.989 290.435 78.815 291.599 C 76.693 292.734, 76.724 292.803, 80.070 294.431 L 83.500 296.099 81.139 294.049 C 79.624 292.734, 79.284 292, 80.189 292 C 80.965 292, 82.089 292.489, 82.687 293.087 C 83.422 293.822, 83.980 293.841, 84.409 293.147 C 84.759 292.582, 84.100 291.240, 82.947 290.165 C 81.403 288.727, 81.174 288.010, 82.079 287.451 C 82.868 286.964, 83.053 287.105, 82.595 287.845 C 82.173 288.530, 82.517 289, 83.441 289 C 84.829 289, 85 284.169, 85 244.833 C 85 220.542, 84.710 200.957, 84.355 201.312 C 84 201.666, 83.718 219.066, 83.729 239.978 C 83.739 261.008, 83.357 278, 82.874 278 C 82.393 278, 81.952 276.762, 81.894 275.250 L 81.787 272.500 80.701 275.250 C 80.103 276.762, 79.247 278, 78.798 278 C 78.350 278, 78.549 278.914, 79.242 280.031 C 80.281 281.708, 80.241 282.222, 79.012 282.987 C 77.013 284.230, 75.082 280.716, 75.035 275.750 C 75.016 273.688, 74.550 272, 74 272 C 72.694 272, 72.697 279.695, 74.003 280.502 C 74.668 280.913, 74.651 281.783, 73.953 283.089 C 73.373 284.171, 72.465 284.787, 71.934 284.459 C 71.402 284.131, 71.274 283.366, 71.648 282.761 C 72.091 282.043, 71.724 281.892, 70.592 282.326 C 69.637 282.693, 67.945 282.506, 66.833 281.911 C 65.036 280.949, 64.887 281.068, 65.494 282.980 C 66.158 285.073, 66.120 285.083, 64.088 283.344 C 61.857 281.433, 61.554 280.930, 62.750 281.118 C 63.163 281.184, 63.725 281.150, 64 281.044 C 64.275 280.938, 65.598 280.650, 66.939 280.403 C 70.714 279.709, 70.542 279.223, 66.101 278.027 C 63.845 277.420, 62 276.542, 62 276.076 C 62 275.611, 60.880 274.496, 59.511 273.599 C 57.522 272.296, 56.643 272.206, 55.128 273.152 C 53.726 274.028, 53.521 274.642, 54.339 275.517 C 55.184 276.423, 55.786 276.357, 56.907 275.236 C 58.193 273.950, 58.467 274.029, 59.153 275.886 C 59.584 277.049, 60.625 278, 61.468 278 C 63.399 278, 63.407 278.736, 61.497 280.646 C 60.160 281.983, 59.928 281.975, 59.390 280.574 C 59.058 279.708, 57.709 279, 56.393 279 C 54.902 279, 54 278.418, 54 277.456 C 54 276.607, 53.437 275.985, 52.750 276.075 C 49.709 276.470, 47.919 275.940, 48.595 274.845 C 49.038 274.130, 48.870 273.962, 48.155 274.405 C 47.520 274.797, 47 274.641, 47 274.059 C 47 273.477, 47.927 273, 49.059 273 C 50.191 273, 50.859 273.419, 50.543 273.931 C 50.226 274.443, 50.425 275.144, 50.984 275.490 C 51.543 275.835, 52 275.402, 52 274.528 C 52 273.653, 51.426 272.717, 50.726 272.448 C 49.885 272.125, 49.584 270.564, 49.842 267.857 C 50.142 264.715, 49.914 263.863, 48.867 264.217 C 48.115 264.470, 47.556 265.677, 47.625 266.898 C 47.711 268.437, 47.312 268.950, 46.323 268.570 C 45.532 268.267, 45.168 268.463, 45.507 269.011 C 45.843 269.555, 45.641 270, 45.059 270 C 44.477 270, 43.999 269.663, 43.998 269.250 C 43.996 268.837, 43.914 246.120, 43.814 218.767 C 43.714 191.414, 43.940 168.727, 44.316 168.351 C 44.692 167.975, 45 168.609, 45 169.761 C 45 170.913, 46.186 172.788, 47.635 173.927 C 50.914 176.507, 53.095 176.685, 50.153 174.133 C 47.291 171.650, 47.439 170.533, 50.654 170.346 C 52.339 170.249, 52.836 170.483, 52.017 170.989 C 51.033 171.598, 51.233 172.219, 52.864 173.615 C 55.368 175.759, 55.601 177, 53.500 177 C 51.434 177, 51.610 179.721, 53.750 180.865 C 55.329 181.709, 55.506 181.178, 55.558 175.434 C 55.600 170.919, 55.218 168.914, 54.245 168.541 C 53.491 168.251, 53.183 167.513, 53.562 166.900 C 54.046 166.117, 54.529 166.189, 55.191 167.143 C 55.827 168.061, 55.908 167.692, 55.441 166 C 55.062 164.625, 54.585 163.315, 54.382 163.089 C 53.761 162.400, 50 166.227, 50 167.548 C 50 168.586, 47.934 170, 46.418 170 C 45.087 170, 46.321 166.281, 48 165.232 C 50.693 163.550, 50.518 162.332, 47.500 161.755 C 45.279 161.331, 45 161.615, 45 164.305 C 45 165.971, 44.729 167.062, 44.397 166.731 C 43.574 165.907, 43.523 123.144, 44.344 122.323 C 44.705 121.962, 45.056 122.867, 45.125 124.333 C 45.320 128.485, 45.415 128.816, 46.817 130.200 C 47.899 131.268, 48.346 131.218, 49.317 129.925 C 51.583 126.909, 60.264 125.146, 58.457 128.069 C 58.141 128.581, 58.584 129, 59.441 129 C 61.622 129, 61.384 130.743, 59 132.232 C 56.530 133.775, 56.423 135, 58.759 135 C 60.745 135, 63.381 131.425, 62.475 129.959 C 62.149 129.432, 62.359 129, 62.941 129 C 63.523 129, 64 128.325, 64 127.500 C 64 126.675, 64.675 126, 65.500 126 C 66.325 126, 67 126.450, 67 127 C 67 127.550, 67.900 128, 69 128 C 70.100 128, 71 128.450, 71 129 C 71 129.550, 71.830 130, 72.845 130 C 74.585 130, 78 132.867, 78 134.329 C 78 134.698, 76.987 135.007, 75.750 135.015 C 74.513 135.024, 73.950 135.361, 74.500 135.765 C 75.050 136.169, 76.053 137.492, 76.730 138.704 C 78.121 141.198, 76.727 142.848, 74.670 141.141 C 73.742 140.371, 73.375 140.737, 73.222 142.589 C 72.853 147.044, 77.455 146.581, 79.260 141.982 C 79.699 140.864, 79.862 140.959, 79.921 142.367 C 79.979 143.727, 80.542 144.091, 82 143.710 C 83.591 143.294, 84 143.680, 84 145.594 C 84 148.336, 82.820 148.693, 81 146.500 C 78.200 143.126, 76.868 145.918, 79.571 149.495 C 80.865 151.207, 81.213 151.278, 82.024 149.995 C 82.828 148.724, 82.972 148.762, 82.985 150.250 C 82.998 151.821, 81.896 152.457, 79.750 152.118 C 78.518 151.924, 78.959 154.362, 80.532 156.441 C 81.960 158.329, 82 158.320, 82 156.084 C 82 154.452, 82.435 153.953, 83.500 154.362 C 84.754 154.843, 84.997 153.673, 84.985 147.219 C 84.975 142.562, 84.631 140.035, 84.115 140.847 C 83.451 141.895, 82.676 141.564, 80.631 139.358 C 77.596 136.085, 77.398 135.168, 79.548 134.343 C 80.442 134, 81.696 134.542, 82.516 135.625 C 83.297 136.656, 83.951 137.107, 83.968 136.628 C 83.986 136.148, 84.675 136.315, 85.500 137 C 86.767 138.052, 87.037 143.235, 87.235 170.372 L 87.470 202.500 87.749 171.356 L 88.028 140.212 90.450 138.625 C 91.782 137.752, 94.476 136.129, 96.436 135.019 C 98.396 133.908, 101.688 132.034, 103.750 130.853 C 105.813 129.672, 109.975 127.349, 113 125.692 C 116.025 124.035, 120.750 121.259, 123.500 119.524 C 126.250 117.788, 129.963 115.726, 131.750 114.940 C 133.537 114.155, 135 113.172, 135 112.756 C 135 112.340, 135.391 112, 135.869 112 C 136.708 112, 149.307 104.913, 156.833 100.207 C 158.850 98.946, 161.287 97.656, 162.250 97.341 C 163.213 97.025, 164 96.369, 164 95.883 C 164 95.398, 164.900 95, 166 95 C 167.100 95, 168 94.660, 168 94.244 C 168 93.828, 169.463 92.852, 171.250 92.074 C 173.037 91.297, 174.725 90.399, 175 90.080 C 175.275 89.761, 176.526 88.925, 177.780 88.223 C 179.789 87.097, 180.562 87.286, 184.280 89.810 C 186.601 91.385, 189.963 93.307, 191.750 94.081 C 193.537 94.855, 195 95.828, 195 96.244 C 195 96.660, 195.430 97, 195.956 97 C 196.482 97, 199.093 98.286, 201.759 99.858 C 204.424 101.429, 208.642 103.852, 211.131 105.242 C 219.458 109.891, 220.497 110.497, 221 111 C 221.275 111.275, 223.300 112.443, 225.500 113.596 C 230.007 115.958, 233.233 117.805, 244 124.191 C 248.125 126.637, 252.963 129.280, 254.750 130.064 C 256.538 130.847, 258 131.744, 258 132.057 C 258 132.371, 259.575 133.245, 261.500 134 C 263.425 134.755, 265 135.629, 265 135.943 C 265 136.256, 266.364 137.115, 268.030 137.853 C 270.467 138.932, 271.357 138.949, 272.572 137.940 C 273.912 136.828, 279.065 133.965, 285.742 130.622 C 286.975 130.005, 287.988 129.162, 287.992 128.750 C 287.996 128.338, 288.459 128, 289.020 128 C 289.581 128, 291.718 126.942, 293.770 125.648 C 303.390 119.584, 313.468 114.901, 315.697 115.460 C 317.344 115.873, 318 115.605, 318 114.519 C 318 113.667, 317.122 113, 316 113 C 314.900 113, 314 112.550, 314 112 C 314 111.450, 313.607 111, 313.126 111 C 312.339 111, 307.473 108.334, 300.151 103.892 C 298.693 103.007, 295.813 101.320, 293.750 100.142 C 287.514 96.580, 283.170 94.097, 279.750 92.140 C 277.962 91.117, 274.226 88.931, 271.447 87.282 C 268.669 85.634, 264.394 83.159, 261.947 81.784 C 259.501 80.408, 255.813 78.319, 253.750 77.141 C 251.688 75.964, 248.313 74.047, 246.250 72.883 C 244.188 71.719, 241.375 69.983, 240 69.026 C 237.402 67.218, 230.396 63.214, 223.500 59.598 C 221.300 58.444, 219.275 57.275, 219 57 C 218.480 56.480, 216.767 55.486, 209.079 51.242 C 206.560 49.851, 203.375 47.947, 202 47.010 C 200.625 46.072, 197.025 43.953, 194 42.300 C 190.975 40.647, 186.799 38.328, 184.720 37.147 C 180.823 34.934, 177.497 34.387, 176.615 35.814 M 44.441 116.574 C 43.374 117.440, 43.015 117.893, 43.645 117.580 C 44.275 117.267, 45.057 117.707, 45.384 118.558 C 45.781 119.592, 45.567 119.875, 44.739 119.411 C 44.057 119.030, 44.265 119.531, 45.200 120.523 C 46.682 122.097, 47.119 122.147, 48.612 120.914 C 49.928 119.828, 50.422 119.788, 50.743 120.741 C 51.308 122.419, 57.638 125.342, 58.950 124.531 C 59.527 124.174, 60 124.535, 60 125.334 C 60 126.133, 60.675 127.045, 61.500 127.362 C 62.494 127.743, 63 127.324, 63 126.119 C 63 124.015, 51.368 116.645, 49.300 117.439 C 48.585 117.713, 48 117.276, 48 116.469 C 48 114.574, 46.866 114.608, 44.441 116.574 M 48 123 C 48 123.550, 48.450 124, 49 124 C 49.550 124, 50 124.498, 50 125.107 C 50 125.716, 49.325 125.955, 48.500 125.638 C 47.566 125.280, 47 125.645, 47 126.605 C 47 128.623, 49.956 128.029, 51.393 125.722 C 52.250 124.345, 52.161 123.727, 51 122.987 C 49.055 121.747, 48 121.751, 48 123 M 54 129.310 C 54 130.122, 54.708 131.058, 55.573 131.390 C 56.669 131.810, 57.048 131.489, 56.823 130.329 C 56.412 128.213, 54 127.341, 54 129.310 M 64.538 129.938 C 64.132 130.595, 64.054 131.387, 64.365 131.698 C 64.675 132.009, 64.497 133.071, 63.969 134.058 C 63.131 135.624, 63.383 135.806, 65.952 135.481 C 68.044 135.216, 68.753 135.480, 68.402 136.394 C 68.131 137.101, 68.678 138.314, 69.617 139.090 C 70.946 140.187, 71.419 140.221, 71.748 139.244 C 71.981 138.553, 72.470 138.172, 72.835 138.398 C 73.201 138.624, 73.500 137.491, 73.500 135.880 C 73.500 133.150, 73.297 132.995, 70.520 133.606 C 67.735 134.217, 67.637 134.140, 69.020 132.443 C 70.352 130.807, 70.328 130.690, 68.776 131.271 C 67.712 131.670, 66.713 131.310, 66.165 130.330 C 65.516 129.170, 65.078 129.065, 64.538 129.938 M 49 131.961 C 49 132.490, 48.110 133.751, 47.022 134.764 C 45.314 136.356, 45.068 137.797, 45.213 145.349 C 45.343 152.126, 45.619 153.654, 46.441 152.148 C 47.296 150.578, 47.729 150.453, 48.690 151.496 C 49.344 152.206, 49.644 153.022, 49.357 153.310 C 48.399 154.268, 53.131 158.164, 54.577 157.609 C 56.854 156.735, 56.329 154.101, 54 154.710 C 51.749 155.299, 51.371 154.029, 53.242 152.158 C 54.230 151.170, 54.180 150.725, 52.992 149.974 C 52.171 149.455, 50.761 149.024, 49.857 149.015 C 47.971 148.998, 46.804 146.675, 47.616 144.557 C 47.921 143.763, 49.594 142.976, 51.335 142.807 C 54.210 142.528, 54.500 142.187, 54.500 139.090 C 54.500 137.136, 53.929 135.486, 53.164 135.227 C 52.209 134.905, 51.924 135.594, 52.164 137.638 C 52.432 139.920, 52.072 140.561, 50.391 140.801 C 48.622 141.054, 48.299 140.610, 48.391 138.053 C 48.451 136.377, 49.047 135.004, 49.715 135.002 C 50.383 135.001, 51.411 134.100, 52 133 C 52.907 131.305, 52.760 131, 51.035 131 C 49.916 131, 49 131.432, 49 131.961 M 176.450 132.906 C 175.928 133.404, 173.813 134.754, 171.750 135.906 C 163.766 140.365, 160.990 141.981, 157.085 144.446 C 154.860 145.851, 152.581 147, 152.020 147 C 151.459 147, 151 147.366, 151 147.813 C 151 148.261, 149.425 149.245, 147.500 150 C 145.575 150.755, 144 151.629, 144 151.943 C 144 152.256, 142.537 153.156, 140.750 153.944 C 135.784 156.132, 128.424 160.998, 130.054 161.015 C 131.298 161.028, 131.294 161.161, 130.029 161.961 C 129.220 162.473, 128.770 163.039, 129.029 163.219 C 129.651 163.652, 137.894 168.001, 140.742 169.399 C 141.975 170.005, 142.988 170.838, 142.992 171.250 C 142.996 171.662, 143.608 172, 144.350 172 C 146.157 172, 158 179.071, 158 180.150 C 158 180.618, 158.661 181, 159.470 181 C 160.824 181, 167.159 184.158, 169.500 186 C 171.818 187.824, 178.170 191, 179.500 191 C 181.035 191, 186.786 187.981, 191.154 184.883 C 192.614 183.847, 194.247 183, 194.782 183 C 195.317 183, 196.293 182.352, 196.951 181.559 C 197.608 180.767, 198.788 180.365, 199.573 180.666 C 200.358 180.968, 201 180.709, 201 180.091 C 201 179.473, 202.575 178.217, 204.500 177.299 C 206.425 176.381, 208 175.263, 208 174.815 C 208 174.367, 208.900 174, 210 174 C 211.100 174, 212 173.550, 212 173 C 212 172.450, 212.900 172, 214 172 C 215.100 172, 216.004 171.662, 216.008 171.250 C 216.012 170.838, 217.025 169.995, 218.258 169.378 C 229.367 163.816, 230.203 163.214, 228.331 162.125 C 226.585 161.110, 226.590 161.059, 228.450 161.030 C 230.897 160.992, 229.814 159.985, 224 156.893 C 221.525 155.577, 219.275 154.275, 219 154 C 218.725 153.725, 216.700 152.532, 214.500 151.348 C 210.302 149.089, 207.912 147.712, 198.340 142.037 C 195.128 140.133, 191.600 138.066, 190.500 137.444 C 189.400 136.822, 186.799 135.343, 184.720 134.157 C 180.679 131.852, 177.983 131.444, 176.450 132.906 M 46.272 140 C 46.272 142.475, 46.467 143.488, 46.706 142.250 C 46.944 141.012, 46.944 138.988, 46.706 137.750 C 46.467 136.512, 46.272 137.525, 46.272 140 M 58 143 C 58 143.550, 58.702 144, 59.559 144 C 60.416 144, 60.840 143.550, 60.500 143 C 60.160 142.450, 59.459 142, 58.941 142 C 58.423 142, 58 142.450, 58 143 M 48 145.892 C 48 147.667, 53.252 148.176, 54.870 146.558 C 56.281 145.147, 56.030 145, 52.214 145 C 49.896 145, 48 145.401, 48 145.892 M 62.100 153.250 C 62.040 158.483, 62.402 162, 63 162 C 64.177 162, 64.177 150.674, 63 147 C 62.459 145.309, 62.167 147.333, 62.100 153.250 M 70.667 149.667 C 69.417 150.916, 69.997 151.860, 72.209 152.180 C 73.565 152.377, 74.685 153.465, 75.109 155 C 76.238 159.083, 76.125 183.771, 74.975 184.342 C 74.411 184.621, 74.524 184.734, 75.225 184.593 C 76.179 184.400, 76.569 180.393, 76.775 168.693 C 77.032 154.118, 76.912 152.912, 75.025 151.025 C 72.904 148.904, 71.780 148.553, 70.667 149.667 M 46.635 155.803 C 45.676 157.330, 49.431 161.015, 51.903 160.973 C 52.941 160.956, 52.549 160.357, 50.783 159.262 C 49.288 158.335, 47.927 156.884, 47.759 156.038 C 47.518 154.828, 47.278 154.778, 46.635 155.803 M 83.853 158.500 C 83.497 159.050, 83.175 165.800, 83.139 173.500 C 83.091 183.663, 83.345 186.838, 84.065 185.085 C 85.134 182.485, 84.929 156.838, 83.853 158.500 M 125.345 162.543 C 125.019 163.392, 125.034 164.367, 125.376 164.710 C 125.719 165.053, 126 164.557, 126 163.608 C 126 162.659, 126.450 162.160, 127 162.500 C 127.550 162.840, 128 162.641, 128 162.059 C 128 160.438, 126.014 160.800, 125.345 162.543 M 129.657 168.794 C 128.819 170.246, 128.922 204, 129.764 204 C 130.247 204, 130.737 196.711, 130.852 187.803 C 130.966 178.895, 131.272 171.395, 131.530 171.136 C 131.789 170.878, 132 179.704, 132 190.750 C 132 205.258, 131.673 210.942, 130.824 211.225 C 129.925 211.525, 129.919 212.974, 130.800 217.356 C 132.196 224.308, 133.748 226.118, 137.633 225.325 C 139.210 225.003, 141.201 224.764, 142.057 224.793 C 142.914 224.823, 144.162 223.971, 144.830 222.901 C 145.848 221.271, 145.757 220.848, 144.273 220.300 C 143.298 219.940, 142.239 219.260, 141.920 218.789 C 140.913 217.301, 138.008 219.121, 137.376 221.637 C 136.932 223.406, 136.441 223.781, 135.543 223.036 C 134.868 222.476, 134.020 222.313, 133.658 222.675 C 133.296 223.037, 133.045 221.796, 133.100 219.917 C 133.190 216.825, 133.267 216.738, 133.915 219 L 134.631 221.500 135.071 219 C 135.313 217.625, 135.238 214.475, 134.905 212 C 134.514 209.090, 134.247 208.492, 134.150 210.309 C 134.068 211.854, 133.647 212.900, 133.216 212.634 C 132.156 211.979, 132.977 204, 134.105 204 C 134.597 204, 135.036 201.637, 135.079 198.750 C 135.122 195.863, 135.385 194.063, 135.662 194.750 C 136.344 196.440, 138 196.339, 138 194.607 C 138 193.841, 138.624 192.975, 139.387 192.682 C 140.360 192.308, 140.623 192.724, 140.270 194.075 C 139.865 195.625, 140.294 196, 142.477 196 C 144.346 196, 145.350 195.379, 145.710 194 C 145.998 192.900, 146.856 192, 147.617 192 C 148.377 192, 149 191.550, 149 191 C 149 189.558, 146.252 189.767, 145.708 191.250 C 145.351 192.225, 144.969 192.235, 143.972 191.297 C 143.059 190.438, 142.143 190.388, 140.769 191.124 C 137.615 192.811, 136.081 191.510, 136.346 187.371 C 136.478 185.311, 137.188 183.437, 137.931 183.190 C 138.732 182.923, 138.998 183.194, 138.587 183.859 C 138.147 184.571, 138.460 184.761, 139.448 184.382 C 140.606 183.937, 141 184.448, 141 186.393 C 141 187.827, 141.450 189, 142 189 C 142.550 189, 143 187.947, 143 186.661 C 143 184.226, 138.771 181.405, 136.877 182.576 C 136.274 182.949, 136.017 180.802, 136.202 176.936 C 136.371 173.395, 136.067 170.544, 135.500 170.347 C 134.868 170.128, 134.606 173.313, 134.789 179 C 134.973 184.743, 134.702 188, 134.039 188 C 133.394 188, 133 184.437, 133 178.607 C 133 171.271, 132.678 169.091, 131.532 168.651 C 130.725 168.341, 129.881 168.405, 129.657 168.794 M 138.951 170 C 138.234 171.737, 138.434 175, 139.259 175 C 139.832 175, 139.768 175.575, 139.105 176.373 C 137.698 178.069, 138.695 181, 140.678 181 C 142.459 181, 145.147 183.520, 144.286 184.381 C 143.945 184.721, 144.102 185, 144.633 185 C 145.165 185, 146.028 184.585, 146.550 184.077 C 147.709 182.951, 153 183.859, 153 185.184 C 153 185.707, 152.147 185.864, 151.105 185.533 C 149.968 185.172, 148.516 185.627, 147.471 186.671 C 145.452 188.691, 147.210 189.901, 149.455 188.037 C 150.527 187.148, 151.317 187.291, 152.922 188.665 C 155.372 190.763, 155.586 192, 153.500 192 C 151.819 192, 151.455 194.545, 153 195.500 C 153.550 195.840, 154 195.390, 154 194.500 C 154 193.610, 154.450 193.160, 155 193.500 C 156.417 194.376, 156.242 197.742, 154.750 198.303 C 154 198.584, 154.501 199.228, 156 199.913 C 158.355 200.987, 158.304 201.023, 155.128 200.527 C 152.146 200.062, 151.907 200.183, 153.064 201.577 C 154.146 202.881, 154.129 203.302, 152.965 204.022 C 152.191 204.500, 151.907 205.240, 152.333 205.667 C 152.760 206.093, 153.484 205.835, 153.943 205.093 C 154.401 204.351, 155.280 204.055, 155.895 204.435 C 156.511 204.816, 157.284 204.423, 157.614 203.563 C 157.963 202.654, 159.400 202, 161.048 202 C 162.607 202, 164.160 201.550, 164.500 201 C 164.840 200.450, 164.704 200, 164.199 200 C 162.289 200, 156.015 193.125, 156.580 191.652 C 156.895 190.832, 156.391 189, 155.461 187.581 C 154.531 186.161, 154.102 185, 154.507 185 C 154.913 185, 154.701 184.345, 154.036 183.544 C 153.372 182.743, 153.159 181.552, 153.563 180.898 C 154.098 180.032, 153.543 179.898, 151.523 180.405 C 149.265 180.971, 148.858 180.812, 149.342 179.551 C 149.669 178.698, 149.510 178, 148.988 178 C 148.465 178, 147.756 179.125, 147.411 180.500 C 147.066 181.875, 146.430 183, 145.999 183 C 144.554 183, 143.916 179.670, 145.208 178.872 C 146.205 178.255, 146.220 177.820, 145.274 176.874 C 144.329 175.929, 143.926 176.029, 143.426 177.333 C 142.743 179.113, 139 179.677, 139 178 C 139 177.450, 139.900 177, 141 177 C 143.265 177, 143.699 174.513, 141.647 173.300 C 140.902 172.860, 140.038 171.825, 139.726 171 C 139.413 170.175, 139.065 169.725, 138.951 170 M 62 175 C 62 175.550, 62.450 176, 63 176 C 63.550 176, 64 175.550, 64 175 C 64 174.450, 63.550 174, 63 174 C 62.450 174, 62 174.450, 62 175 M 80 181.941 C 80 185.209, 79.573 188.146, 79.050 188.469 C 77.606 189.361, 79.525 208, 81.061 208 C 81.607 208, 82 201.304, 82 192 C 82 182, 81.625 176, 81 176 C 80.446 176, 80 178.647, 80 181.941 M 45 178.906 C 45 180.320, 45.517 180.678, 47 180.290 C 48.100 180.002, 49 179.144, 49 178.383 C 49 177.623, 48.100 177, 47 177 C 45.699 177, 45 177.667, 45 178.906 M 72.232 181 C 72.232 182.925, 72.438 183.713, 72.689 182.750 C 72.941 181.787, 72.941 180.213, 72.689 179.250 C 72.438 178.287, 72.232 179.075, 72.232 181 M 47.716 183.387 C 45.321 185.607, 45.016 186.589, 45.136 191.702 C 45.211 194.891, 45.481 196.375, 45.737 195 C 45.993 193.625, 46.690 192.197, 47.287 191.826 C 48.036 191.361, 47.943 190.636, 46.985 189.482 C 45.773 188.022, 45.907 187.574, 48.049 185.928 C 49.397 184.892, 50.837 184.034, 51.250 184.022 C 52.578 183.983, 52.049 186.715, 50.476 188.020 C 49.638 188.716, 49.173 189.507, 49.444 189.778 C 50.017 190.350, 54.957 185.865, 54.983 184.750 C 54.992 184.338, 54.487 184, 53.860 184 C 53.233 184, 52.206 183.296, 51.576 182.435 C 50.565 181.053, 50.115 181.164, 47.716 183.387 M 156.278 183.500 C 156.530 185.576, 161 187.062, 161 185.070 C 161 184.481, 160.137 184, 159.083 184 C 158.029 184, 156.912 183.438, 156.601 182.750 C 156.290 182.063, 156.144 182.400, 156.278 183.500 M 161.250 187.496 C 159.161 189.868, 159.823 192.068, 163.693 195.613 C 166.379 198.073, 167.601 198.655, 168.177 197.747 C 168.786 196.789, 168.973 196.822, 168.985 197.890 C 168.993 198.654, 169.744 199.823, 170.653 200.488 C 171.629 201.202, 171.990 202.208, 171.533 202.946 C 170.652 204.372, 170.718 223.175, 171.641 233.250 C 172.075 238, 172.665 240, 173.629 240 C 174.583 240, 175.033 238.554, 175.107 235.250 L 175.214 230.500 176.204 234.943 C 177.027 238.634, 176.924 239.582, 175.597 240.553 C 173.552 242.048, 173.559 243.617, 175.614 244.405 C 176.706 244.825, 177.075 245.829, 176.753 247.512 C 176.491 248.881, 176.679 250, 177.169 250 C 177.673 250, 178.014 238.032, 177.951 222.500 C 177.887 206.498, 177.456 195, 176.920 195 C 176.414 195, 176 196.125, 176 197.500 C 176 199.363, 175.472 200, 173.927 200 L 171.855 200 174.002 197.270 L 176.150 194.540 173.825 192.756 C 172.546 191.775, 170.621 190.303, 169.547 189.486 C 168.472 188.669, 167.010 188, 166.297 188 C 165.583 188, 165 187.550, 165 187 C 165 185.543, 162.702 185.847, 161.250 187.496 M 55.158 189 C 55.158 190.375, 55.385 190.938, 55.662 190.250 C 55.940 189.563, 55.940 188.438, 55.662 187.750 C 55.385 187.063, 55.158 187.625, 55.158 189 M 137 189.031 C 137 189.564, 137.675 190, 138.500 190 C 139.325 190, 140 189.823, 140 189.607 C 140 189.391, 139.325 188.955, 138.500 188.638 C 137.675 188.322, 137 188.499, 137 189.031 M 163.385 189.438 C 162.599 191.487, 166.580 196, 169.174 196 C 171.802 196, 171.420 194.513, 168.444 193.156 C 167.038 192.516, 166.133 191.594, 166.433 191.109 C 166.733 190.624, 166.313 189.675, 165.501 189.001 C 164.307 188.010, 163.901 188.094, 163.385 189.438 M 84.310 194.500 C 84.315 197.800, 84.502 199.029, 84.725 197.232 C 84.947 195.435, 84.943 192.735, 84.715 191.232 C 84.486 189.729, 84.304 191.200, 84.310 194.500 M 47.505 194.976 C 46.782 198.269, 47.442 200, 49.420 200 C 50.253 200, 50.558 199.141, 50.267 197.617 C 50.017 196.307, 50.304 194.930, 50.906 194.558 C 51.551 194.160, 52 194.659, 52 195.774 C 52 198.472, 53.014 199.129, 54.652 197.491 C 56.724 195.419, 54.351 192, 50.839 192 C 48.679 192, 48.032 192.578, 47.505 194.976 M 45.286 203.500 C 45.294 206.250, 45.488 207.256, 45.718 205.736 C 45.947 204.216, 45.941 201.966, 45.704 200.736 C 45.467 199.506, 45.279 200.750, 45.286 203.500 M 51.024 205.887 C 50.116 210.165, 50.070 212.284, 50.857 213.637 C 51.846 215.340, 51.949 215.286, 52.049 213 C 52.111 211.563, 52.395 211.098, 52.715 211.907 C 53.092 212.860, 53.660 212.375, 54.473 210.407 C 55.343 208.301, 55.377 207.018, 54.596 205.750 C 53.809 204.471, 53.855 203.462, 54.768 202 C 55.850 200.267, 55.767 200, 54.145 200 C 52.669 200, 52.009 201.246, 51.024 205.887 M 140.211 202.233 C 138.251 204.193, 138 204.242, 138 202.663 C 138 201.684, 137.550 201.160, 137 201.500 C 136.450 201.840, 136 203.441, 136 205.059 C 136 207.292, 136.462 208, 137.918 208 C 140.673 208, 143.074 209.072, 142.478 210.036 C 142.197 210.490, 142.494 211.187, 143.138 211.585 C 143.869 212.037, 144.041 211.876, 143.595 211.155 C 142.414 209.242, 147.130 209.803, 148.608 211.750 C 149.434 212.838, 149.948 213.023, 149.968 212.238 C 149.991 211.328, 151.116 211.155, 154 211.616 C 157.614 212.194, 158 212.050, 158 210.128 C 158 208.667, 158.627 208, 160 208 C 161.100 208, 162 207.386, 162 206.637 C 162 204.373, 157.598 205.277, 156.507 207.764 C 155.861 209.236, 154.987 209.808, 154.007 209.398 C 150.427 207.904, 145.516 207.166, 144.975 208.040 C 144.659 208.552, 144.400 207.402, 144.400 205.485 C 144.400 200.644, 142.937 199.508, 140.211 202.233 M 174.431 203.112 C 174.053 203.723, 174.184 204.511, 174.722 204.862 C 175.260 205.213, 175.957 206.175, 176.271 207 C 176.585 207.825, 176.878 207.037, 176.921 205.250 C 176.999 202.032, 175.757 200.966, 174.431 203.112 M 47.552 207.500 C 47.880 210.862, 47.729 212.026, 47.089 211.052 C 45.556 208.719, 44.586 214.430, 45.685 219.323 L 46.623 223.500 47.877 216.394 C 48.778 211.295, 48.840 208.330, 48.098 205.894 C 47.141 202.754, 47.100 202.874, 47.552 207.500 M 163 205 C 163 205.550, 163.675 206, 164.500 206 C 165.325 206, 166 205.550, 166 205 C 166 204.450, 165.325 204, 164.500 204 C 163.675 204, 163 204.450, 163 205 M 129 206.500 C 129 207.325, 129.450 208, 130 208 C 130.550 208, 131 207.325, 131 206.500 C 131 205.675, 130.550 205, 130 205 C 129.450 205, 129 205.675, 129 206.500 M 74 219 C 74 226.333, 74.200 232.133, 74.445 231.888 C 75.143 231.190, 75.303 206.970, 74.615 206.281 C 74.277 205.943, 74 211.667, 74 219 M 87.158 209 C 87.158 210.375, 87.385 210.938, 87.662 210.250 C 87.940 209.563, 87.940 208.438, 87.662 207.750 C 87.385 207.063, 87.158 207.625, 87.158 209 M 80 231.262 C 80 250.013, 79.745 254.112, 78.500 255.357 C 76.755 257.102, 76.308 272, 78 272 C 78.583 272, 79 268.667, 79 264 C 79 257.534, 79.289 256, 80.509 256 C 81.830 256, 81.937 253.098, 81.370 232.750 C 81.014 219.963, 80.560 209.313, 80.361 209.083 C 80.163 208.854, 80 218.835, 80 231.262 M 175.272 213 C 175.272 215.475, 175.467 216.488, 175.706 215.250 C 175.944 214.012, 175.944 211.988, 175.706 210.750 C 175.467 209.512, 175.272 210.525, 175.272 213 M 158.740 211.886 C 158.399 213.189, 157.384 214, 156.094 214 C 154.424 214, 154 214.621, 154 217.063 C 154 219.665, 154.338 220.079, 156.250 219.813 C 158.239 219.536, 158.462 219.878, 158.175 222.750 C 157.996 224.537, 158.281 226, 158.808 226 C 160.143 226, 161.359 213.464, 160.221 211.431 C 159.400 209.963, 159.229 210.015, 158.740 211.886 M 49.992 223.750 C 49.980 235.441, 52.264 271, 53.026 271 C 53.667 271, 54.986 253.087, 54.995 244.250 C 55.004 236.464, 53.086 239.871, 52.744 248.250 C 52.559 252.787, 52.315 247.387, 52.204 236.250 C 52.076 223.552, 51.627 216, 51 216 C 50.420 216, 49.997 219.255, 49.992 223.750 M 150.307 222.325 C 149.350 223.929, 143.154 226.213, 141.885 225.429 C 140.735 224.718, 140.777 226.098, 141.963 227.974 C 142.577 228.945, 142.487 229.706, 141.697 230.208 C 140.867 230.736, 140.999 230.974, 142.128 230.985 C 143.023 230.993, 144.474 229.988, 145.351 228.750 C 146.763 226.759, 147.093 226.677, 148.223 228.039 C 149.540 229.627, 155.942 230.627, 156.074 229.266 C 156.115 228.845, 156.337 227.488, 156.568 226.250 C 156.843 224.775, 156.498 224, 155.565 224 C 154.783 224, 153.462 223.319, 152.629 222.486 C 151.376 221.233, 150.976 221.206, 150.307 222.325 M 129.872 226.250 C 131.445 228.255, 133 228.545, 133 226.833 C 133 226.192, 132.704 225.963, 132.342 226.325 C 131.980 226.687, 130.968 226.424, 130.092 225.741 C 128.683 224.643, 128.658 224.702, 129.872 226.250 M 150.496 226.007 C 149.736 227.236, 152.488 228.434, 153.968 227.520 C 154.554 227.158, 154.774 226.443, 154.457 225.931 C 153.694 224.696, 151.277 224.742, 150.496 226.007 M 137.048 226.949 C 136.249 227.455, 135.237 227.646, 134.798 227.375 C 134.359 227.104, 134 227.636, 134 228.558 C 134 229.731, 134.589 230.079, 135.966 229.719 C 137.047 229.436, 137.835 229.635, 137.716 230.160 C 137.510 231.072, 139.229 232.188, 150.500 238.452 C 153.250 239.980, 156.694 242.079, 158.154 243.115 C 161.146 245.239, 162 245.440, 162 244.019 C 162 243.480, 160.908 242.764, 159.572 242.429 C 156.698 241.707, 155.410 239.164, 157.511 238.357 C 158.324 238.046, 158.740 237.388, 158.435 236.895 C 157.555 235.471, 156 235.857, 156 237.500 C 156 239.189, 155.137 239.373, 153.143 238.110 C 152.069 237.429, 152.048 237.088, 153.045 236.472 C 154.006 235.878, 153.899 235.399, 152.592 234.443 C 151.329 233.520, 151.198 232.996, 152.092 232.443 C 152.784 232.016, 153.822 232.403, 154.512 233.347 C 155.177 234.256, 156.627 235, 157.735 235 C 159.175 235, 159.922 235.858, 160.352 238.008 C 160.682 239.662, 161.512 240.900, 162.196 240.758 C 162.942 240.603, 163.451 241.596, 163.470 243.240 C 163.493 245.367, 164.338 246.430, 167.250 247.992 C 169.313 249.099, 171 249.553, 171 249.002 C 171 248.451, 171.787 248.036, 172.750 248.079 C 173.795 248.126, 173.997 248.361, 173.250 248.662 C 172.563 248.940, 172 249.654, 172 250.250 C 172 250.846, 172.293 251.040, 172.651 250.682 C 173.009 250.324, 173.943 250.812, 174.725 251.766 C 175.508 252.719, 175.856 252.925, 175.498 252.222 C 175.140 251.519, 174.667 249.521, 174.447 247.781 C 174.227 246.041, 173.370 243.942, 172.544 243.115 C 171.207 241.778, 170.789 241.850, 168.755 243.760 C 167.036 245.375, 166.101 245.648, 164.985 244.860 C 163.727 243.972, 163.755 243.893, 165.167 244.343 C 167.139 244.971, 168.191 242.913, 166.923 240.909 C 166.219 239.798, 166.027 239.905, 166.015 241.417 C 165.994 244.038, 164.763 242.619, 164.596 239.782 C 164.513 238.358, 163.861 237.544, 162.865 237.617 C 161.986 237.681, 161.278 237.231, 161.291 236.617 C 161.379 232.569, 160.954 231.878, 158.750 232.480 C 156.808 233.011, 156.740 232.945, 158.250 231.998 C 162.910 229.076, 157.304 229.095, 151.835 232.020 C 150.710 232.622, 149.785 232.446, 148.979 231.475 C 147.962 230.250, 147.542 230.344, 146.105 232.118 L 144.422 234.197 141.024 231.023 C 138.284 228.463, 137.905 227.673, 139.063 226.940 C 139.853 226.440, 140.050 226.031, 139.500 226.031 C 138.950 226.031, 137.846 226.444, 137.048 226.949 M 86.999 263.201 C 86.725 282.286, 86.844 297.558, 87.264 297.137 C 87.683 296.717, 87.908 281.102, 87.763 262.436 L 87.498 228.500 86.999 263.201 M 146.607 233.298 C 145.096 234.403, 145.237 234.651, 147.956 235.677 C 149.730 236.347, 151.225 236.444, 151.555 235.912 C 151.865 235.410, 151.390 235, 150.500 235 C 149.610 235, 149.141 234.581, 149.457 234.069 C 150.414 232.521, 148.411 231.979, 146.607 233.298 M 73.544 240.500 C 73.155 243.800, 72.799 246.950, 72.752 247.500 C 72.704 248.050, 73.048 250.300, 73.514 252.500 C 74.298 256.196, 74.417 256.310, 75.082 254 C 76.062 250.590, 76.044 238.960, 75.055 236.500 C 74.456 235.011, 74.070 236.032, 73.544 240.500 M 168.750 235.572 C 168.338 235.991, 168 237.473, 168 238.867 C 168 240.687, 168.305 241.095, 169.085 240.315 C 169.681 239.719, 170.019 238.236, 169.835 237.020 C 169.651 235.805, 169.162 235.153, 168.750 235.572 M 47.116 247.691 C 47.052 252.196, 47.350 256.098, 47.778 256.363 C 48.206 256.628, 48.408 253.617, 48.226 249.672 C 47.743 239.195, 47.249 238.312, 47.116 247.691 M 168.250 246.250 C 168.479 246.938, 169.267 247.500, 170 247.500 C 170.733 247.500, 171.521 246.938, 171.750 246.250 C 171.998 245.506, 171.289 245, 170 245 C 168.711 245, 168.002 245.506, 168.250 246.250 M 45.326 257.500 C 45.428 261.600, 45.914 264.388, 46.500 264.229 C 47.727 263.897, 47.564 258.717, 46.180 254 C 45.263 250.876, 45.171 251.252, 45.326 257.500 M 44.333 266.500 C 44.333 267.220, 44.933 267.579, 45.667 267.298 C 46.400 267.016, 47 266.657, 47 266.500 C 47 266.343, 46.400 265.984, 45.667 265.702 C 44.933 265.421, 44.333 265.780, 44.333 266.500 M 125.667 269.667 C 124.597 270.736, 124.900 273.180, 126.016 272.490 C 126.575 272.144, 126.726 271.366, 126.352 270.761 C 125.910 270.046, 126.273 269.891, 127.388 270.319 C 128.407 270.710, 128.856 270.576, 128.493 269.989 C 127.786 268.844, 126.622 268.712, 125.667 269.667 M 45.459 271.067 C 45.096 271.653, 45.070 272.403, 45.400 272.733 C 45.730 273.063, 46 272.782, 46 272.108 C 46 271.434, 46.450 271.160, 47 271.500 C 47.550 271.840, 48 271.641, 48 271.059 C 48 269.686, 46.309 269.691, 45.459 271.067 M 131.595 273.157 C 133.473 275.283, 133.472 275.307, 131.500 274.816 C 129.600 274.343, 129.487 274.881, 129.238 285.632 C 129.012 295.386, 129.184 296.866, 130.488 296.366 C 131.702 295.900, 132 296.693, 132 300.393 C 132 303.910, 131.629 305, 130.432 305 C 129.123 305, 128.911 306.237, 129.144 312.500 C 129.298 316.625, 129.741 320, 130.130 320 C 130.518 320, 131.436 320.231, 132.168 320.513 C 133.257 320.933, 133.409 317.922, 133 304.011 C 132.725 294.653, 132.838 286.997, 133.250 286.998 C 133.662 286.999, 134.029 292.063, 134.063 298.250 C 134.102 305.105, 134.446 308.714, 134.944 307.487 C 135.393 306.380, 135.651 300.867, 135.517 295.237 C 135.380 289.476, 135.676 285, 136.196 285 C 136.703 285, 136.840 284.550, 136.500 284 C 136.160 283.450, 136.531 283, 137.324 283 C 138.118 283, 139.002 283.900, 139.290 285 C 139.623 286.276, 140.662 287.006, 142.156 287.015 C 143.821 287.026, 144.114 287.275, 143.166 287.876 C 142.092 288.557, 142.141 288.840, 143.416 289.329 C 144.287 289.664, 145.675 289.678, 146.500 289.362 C 148.202 288.709, 148.557 286, 146.941 286 C 146.359 286, 146.168 286.563, 146.517 287.250 C 146.867 287.938, 146.258 287.488, 145.166 286.250 C 144.073 285.012, 142.352 283.986, 141.340 283.970 C 139.641 283.942, 139.653 283.850, 141.500 282.769 C 143.351 281.686, 143.240 281.545, 140.011 280.877 C 137.713 280.401, 136.268 280.555, 135.776 281.327 C 135.279 282.109, 135.026 281.936, 135.015 280.809 C 134.997 278.732, 136.622 277.579, 137.520 279.032 C 137.978 279.773, 138.608 279.740, 139.589 278.926 C 140.365 278.282, 141 278.150, 141 278.633 C 141 279.117, 142.446 280.152, 144.214 280.935 C 145.982 281.717, 146.882 282.539, 146.214 282.762 C 145.546 282.985, 145.007 283.917, 145.015 284.833 C 145.024 285.786, 145.345 286.072, 145.765 285.500 C 147.135 283.636, 149.863 284.115, 149.471 286.151 C 149.269 287.198, 149.480 287.821, 149.939 287.538 C 151.313 286.688, 152.694 289.297, 152.565 292.500 C 152.499 294.150, 152.908 295.831, 153.473 296.235 C 154.067 296.660, 153.763 296.976, 152.750 296.985 C 151.787 296.993, 151 297.450, 151 298 C 151 298.550, 151.627 299, 152.393 299 C 153.159 299, 154.054 299.698, 154.381 300.551 C 154.873 301.831, 155.224 301.875, 156.400 300.801 C 157.624 299.682, 157.556 299.211, 155.912 297.436 C 153.854 295.213, 153.412 292.481, 154.956 291.527 C 155.482 291.202, 155.659 290.275, 155.349 289.468 C 154.998 288.553, 155.391 288, 156.393 288 C 157.277 288, 158 288.367, 158 288.815 C 158 289.726, 164.393 292.982, 166.284 293.033 C 168.068 293.082, 172.401 296.932, 171.587 297.746 C 171.204 298.129, 170.560 297.906, 170.155 297.251 C 169.645 296.425, 168.514 296.331, 166.460 296.944 C 164.832 297.430, 164.207 297.867, 165.071 297.914 C 167.038 298.022, 176.011 306.518, 175.970 308.233 C 175.952 308.959, 175.504 308.753, 174.920 307.750 C 174.359 306.788, 173.278 306, 172.518 306 C 171.757 306, 170.871 305.168, 170.548 304.152 C 170.226 303.135, 168.911 301.825, 167.627 301.240 C 165.706 300.365, 164.986 300.535, 163.560 302.201 C 161.421 304.700, 162.984 307.088, 165.430 305.058 C 166.662 304.036, 167.243 304.100, 168.544 305.401 C 169.423 306.280, 170.566 307, 171.083 307 C 171.655 307, 171.785 312.450, 171.415 320.885 C 170.977 330.887, 171.146 335.404, 172.020 337.037 C 173.083 339.024, 173.022 339.223, 171.526 338.648 C 169.393 337.830, 167.281 338.938, 168.977 339.986 C 169.847 340.524, 169.768 340.875, 168.682 341.292 C 167.675 341.678, 167.302 341.321, 167.522 340.181 C 167.701 339.256, 167.881 338.195, 167.923 337.823 C 167.966 337.451, 168.787 336.962, 169.750 336.736 C 170.713 336.510, 169.818 336.341, 167.761 336.361 C 165.705 336.380, 164.561 336.729, 165.220 337.136 C 166.997 338.234, 167.004 343, 165.229 343 C 164.229 343, 163.943 342.326, 164.324 340.869 C 164.640 339.662, 164.257 338.114, 163.441 337.298 C 162.648 336.505, 161.993 336.227, 161.985 336.679 C 161.976 337.130, 161.537 336.825, 161.008 336 C 160.478 335.175, 160.309 333.656, 160.630 332.625 C 160.951 331.594, 160.669 330.414, 160.004 330.002 C 159.099 329.443, 159.072 328.734, 159.897 327.193 C 161.375 324.431, 161.289 322.952, 159.687 323.567 C 158.965 323.844, 157.545 323.155, 156.532 322.035 C 155.519 320.916, 153.635 320, 152.345 320 C 150.667 320, 150 319.431, 150 318 C 150 316.900, 149.502 316, 148.893 316 C 148.284 316, 148.054 315.302, 148.382 314.448 C 148.756 313.472, 148.569 313.149, 147.877 313.576 C 147.272 313.950, 146.408 313.660, 145.957 312.930 C 145.351 311.950, 144.815 312.312, 143.902 314.316 C 142.821 316.687, 142.258 316.951, 139.415 316.418 C 136.558 315.882, 136.120 316.092, 135.801 318.154 C 135.601 319.444, 136.075 321.527, 136.854 322.781 C 138.318 325.138, 137.907 326.678, 136.110 325.568 C 135.548 325.220, 135.304 324.372, 135.568 323.683 C 135.848 322.953, 135.194 322.365, 134.003 322.275 C 132.751 322.181, 132.219 322.546, 132.633 323.215 C 133.042 323.877, 132.846 324.023, 132.138 323.585 C 131.494 323.187, 131.269 322.373, 131.638 321.776 C 132.029 321.144, 131.846 320.977, 131.198 321.378 C 129.733 322.283, 130.700 324.658, 132.819 325.359 C 133.744 325.665, 136.300 327.035, 138.500 328.404 C 146.007 333.077, 151.251 336, 152.126 336 C 152.607 336, 153.004 336.337, 153.008 336.750 C 153.012 337.163, 154.025 337.997, 155.258 338.603 C 160.266 341.068, 169.529 346.194, 170.638 347.115 C 171.430 347.772, 172.068 347.699, 172.565 346.894 C 173.037 346.131, 172.886 345.952, 172.155 346.405 C 171.520 346.797, 171 346.641, 171 346.059 C 171 345.477, 172.463 345.007, 174.250 345.015 C 176.037 345.024, 176.987 345.361, 176.361 345.765 C 175.541 346.294, 175.629 346.879, 176.676 347.850 C 177.946 349.029, 178.104 346.099, 177.924 324.733 C 177.810 311.277, 177.987 299.831, 178.316 299.298 C 178.892 298.365, 172.282 294.452, 170.750 294.820 C 170.338 294.919, 170 294.571, 170 294.047 C 170 293.523, 168.313 292.309, 166.250 291.349 C 164.188 290.389, 162.275 289.356, 162 289.052 C 161.725 288.748, 159.700 287.532, 157.500 286.350 C 151.378 283.059, 147.208 280.679, 138.721 275.629 C 130.006 270.443, 128.841 270.039, 131.595 273.157 M 63.250 272.692 C 64.213 272.942, 65 273.741, 65 274.466 C 65 276.042, 67.271 277.083, 68.689 276.157 C 69.244 275.796, 69.689 274.825, 69.678 274 C 69.664 272.937, 68.470 272.462, 65.579 272.369 C 63.336 272.296, 62.288 272.442, 63.250 272.692 M 131.750 275.689 C 129.878 276.179, 129.289 279, 131.059 279 C 131.641 279, 131.869 278.597, 131.565 278.105 C 130.715 276.729, 133.608 276.008, 134.878 277.278 C 135.495 277.895, 136 278.030, 136 277.578 C 136 277.125, 136.675 277.315, 137.500 278 C 138.325 278.685, 139 278.812, 139 278.283 C 139 277.491, 134.380 274.729, 133.703 275.116 C 133.591 275.180, 132.713 275.438, 131.750 275.689 M 82.195 282.500 C 82.215 284.150, 82.439 284.704, 82.693 283.731 C 82.947 282.758, 82.930 281.408, 82.656 280.731 C 82.382 280.054, 82.175 280.850, 82.195 282.500 M 70 286.441 C 70 287.298, 70.450 288, 71 288 C 71.550 288, 72 287.577, 72 287.059 C 72 286.541, 71.550 285.840, 71 285.500 C 70.450 285.160, 70 285.584, 70 286.441 M 126.400 299.500 C 126.401 307.750, 126.556 310.992, 126.744 306.704 C 126.932 302.417, 126.931 295.667, 126.742 291.704 C 126.552 287.742, 126.399 291.250, 126.400 299.500 M 151.575 285.879 C 151.265 286.380, 151.684 287.048, 152.506 287.364 C 153.328 287.679, 154 287.528, 154 287.028 C 154 285.672, 152.223 284.830, 151.575 285.879 M 73.500 289 C 73.840 289.550, 74.541 290, 75.059 290 C 75.577 290, 76 289.550, 76 289 C 76 288.450, 75.298 288, 74.441 288 C 73.584 288, 73.160 288.450, 73.500 289 M 156.362 291.500 C 155.516 293.702, 156.308 294.191, 159.068 293.171 L 161.426 292.298 159.198 291.106 C 157.354 290.119, 156.865 290.187, 156.362 291.500 M 140.163 296.598 C 137.755 298.285, 137.225 302, 139.393 302 C 140.159 302, 141.057 302.706, 141.388 303.569 C 141.812 304.674, 142.657 304.933, 144.245 304.445 C 147.385 303.479, 147.363 303.568, 145.464 299.565 C 143.307 295.019, 142.813 294.743, 140.163 296.598 M 173.250 300.250 C 173.864 302.096, 176.667 302.335, 176.667 300.541 C 176.667 299.689, 175.810 299, 174.750 299 C 173.661 299, 173.013 299.540, 173.250 300.250 M 153.250 304.662 C 151.752 305.267, 151.578 309.621, 153.016 310.510 C 153.575 310.856, 153.800 311.515, 153.515 311.976 C 153.230 312.437, 153.898 312.578, 154.999 312.290 C 156.107 312, 157 310.926, 157 309.883 C 157 308.848, 157.675 308, 158.500 308 C 160.309 308, 160.517 311.623, 158.750 312.341 C 157.849 312.706, 157.811 313.078, 158.615 313.674 C 160.809 315.299, 161.190 318.792, 159.294 319.895 C 157.308 321.051, 157.956 321.338, 160.418 320.393 C 161.651 319.920, 162 318.251, 162 312.834 C 162 308.454, 161.630 306.111, 161 306.500 C 160.450 306.840, 160 306.416, 160 305.559 C 160 304.019, 156.121 303.504, 153.250 304.662 M 167.095 308.750 C 167.831 309.712, 168.561 310.688, 168.717 310.917 C 168.873 311.146, 169 310.358, 169 309.167 C 169 307.835, 168.375 307, 167.378 307 C 165.989 307, 165.948 307.252, 167.095 308.750 M 175.365 321.500 C 175.368 327, 175.536 329.122, 175.738 326.216 C 175.941 323.311, 175.939 318.811, 175.734 316.216 C 175.528 313.622, 175.363 316, 175.365 321.500 M 134.195 317.500 C 134.215 319.150, 134.439 319.704, 134.693 318.731 C 134.947 317.758, 134.930 316.408, 134.656 315.731 C 134.382 315.054, 134.175 315.850, 134.195 317.500 M 139.600 321.600 C 139.244 322.527, 139.178 323.511, 139.453 323.786 C 139.728 324.061, 140.244 323.527, 140.600 322.600 C 140.956 321.673, 141.022 320.689, 140.747 320.414 C 140.472 320.139, 139.956 320.673, 139.600 321.600 M 148 320.917 C 148 321.421, 148.563 322.044, 149.250 322.302 C 150.128 322.631, 149.942 323.200, 148.623 324.214 C 147.021 325.448, 146.927 325.995, 147.981 327.964 C 148.958 329.790, 149.398 329.982, 150.092 328.885 C 150.575 328.123, 150.976 326.775, 150.985 325.889 C 150.996 324.711, 151.674 324.406, 153.500 324.755 C 157.163 325.455, 156.549 323.632, 152.466 321.685 C 148.386 319.740, 148 319.673, 148 320.917 M 143.150 322.603 C 142.408 323.442, 142.028 325, 142.307 326.065 C 142.880 328.259, 141.975 328.575, 140.200 326.800 C 139.540 326.140, 139 326.032, 139 326.559 C 139 328.228, 142.569 329.886, 144.089 328.924 C 144.865 328.432, 145.189 328.024, 144.809 328.015 C 144.429 328.007, 144.744 326.795, 145.508 325.322 C 147.550 321.386, 145.904 319.488, 143.150 322.603 M 150.638 329.500 C 150.322 330.325, 150.574 331, 151.198 331 C 151.822 331, 152.072 331.261, 151.753 331.580 C 151.434 331.899, 150.009 331.397, 148.587 330.465 C 146.902 329.361, 146 329.180, 146 329.944 C 146 330.590, 145.480 330.797, 144.845 330.405 C 144.108 329.949, 143.963 330.132, 144.446 330.912 C 144.861 331.584, 145.457 331.877, 145.770 331.563 C 146.084 331.250, 147.339 331.647, 148.560 332.447 C 150.552 333.753, 150.954 333.708, 152.488 332.014 C 153.427 330.975, 153.900 329.648, 153.539 329.063 C 152.605 327.552, 151.311 327.748, 150.638 329.500 M 162.250 329.250 C 162.479 329.938, 163.267 330.500, 164 330.500 C 164.733 330.500, 165.521 329.938, 165.750 329.250 C 165.998 328.506, 165.289 328, 164 328 C 162.711 328, 162.002 328.506, 162.250 329.250 M 156 330.393 C 156 331.159, 156.675 332.045, 157.500 332.362 C 159.177 333.005, 159.260 332.840, 158.393 330.582 C 157.643 328.628, 156 328.498, 156 330.393 M 153.451 334.079 C 152.776 335.171, 155.060 337.243, 156.617 336.952 C 156.980 336.885, 157.588 337.334, 157.969 337.950 C 158.661 339.069, 164 340.481, 164 339.545 C 164 338.516, 157.895 335.947, 156.904 336.559 C 156.305 336.929, 156 336.461, 156.183 335.454 C 156.556 333.396, 154.510 332.366, 153.451 334.079 M 172.015 342.028 C 172.612 343.143, 173.550 343.778, 174.099 343.439 C 174.743 343.041, 174.681 342.321, 173.926 341.411 C 172.155 339.277, 170.780 339.721, 172.015 342.028 M 167.473 343.956 C 167.798 344.482, 168.725 344.659, 169.532 344.349 C 171.599 343.556, 171.356 343, 168.941 343 C 167.809 343, 167.148 343.430, 167.473 343.956" stroke="none" fill="#0e2b6a" fill-rule="evenodd"/><path d="M 44.441 116.574 C 43.374 117.440, 43.015 117.893, 43.645 117.580 C 44.275 117.267, 45.057 117.707, 45.384 118.558 C 45.781 119.592, 45.567 119.875, 44.739 119.411 C 44.057 119.030, 44.265 119.531, 45.200 120.523 C 46.682 122.097, 47.119 122.147, 48.612 120.914 C 49.928 119.828, 50.422 119.788, 50.743 120.741 C 51.308 122.419, 57.638 125.342, 58.950 124.531 C 59.527 124.174, 60 124.535, 60 125.334 C 60 126.133, 60.675 127.045, 61.500 127.362 C 62.494 127.743, 63 127.324, 63 126.119 C 63 124.015, 51.368 116.645, 49.300 117.439 C 48.585 117.713, 48 117.276, 48 116.469 C 48 114.574, 46.866 114.608, 44.441 116.574 M 308.500 117.307 C 306.300 118.500, 301.200 121.394, 297.167 123.738 C 293.134 126.082, 289.422 128, 288.917 128 C 288.413 128, 287.996 128.338, 287.992 128.750 C 287.988 129.162, 286.975 130.005, 285.742 130.622 C 279.069 133.963, 273.913 136.828, 272.575 137.938 C 271.266 139.024, 271.060 146.274, 271.020 192.845 L 270.973 246.500 268.736 248.228 C 267.506 249.178, 266.220 249.966, 265.878 249.978 C 265.353 249.997, 255.798 255.314, 242.250 263.126 C 240.463 264.157, 237.425 265.900, 235.500 267 C 233.575 268.100, 230.537 269.845, 228.750 270.878 C 225.683 272.650, 216.515 277.914, 211 281.069 C 209.625 281.856, 208.275 282.725, 208 283 C 207.725 283.275, 205.700 284.443, 203.500 285.596 C 201.300 286.748, 195.225 290.166, 190 293.191 C 184.775 296.216, 179.873 298.895, 179.106 299.144 C 177.955 299.517, 177.748 303.936, 177.921 324.398 C 178.104 346.057, 177.946 349.029, 176.676 347.850 C 175.629 346.879, 175.541 346.294, 176.361 345.765 C 176.987 345.361, 176.037 345.024, 174.250 345.015 C 172.463 345.007, 171 345.395, 171 345.878 C 171 347.036, 173.545 349.122, 174.181 348.485 C 174.455 348.212, 175.496 348.890, 176.494 349.994 C 178.906 352.658, 179.747 352.551, 185.554 348.838 C 188.274 347.099, 192.750 344.469, 195.500 342.993 C 198.250 341.517, 202.188 339.340, 204.250 338.155 C 206.312 336.970, 209.687 335.052, 211.750 333.893 C 213.813 332.735, 215.950 331.445, 216.500 331.027 C 217.050 330.609, 219.560 329.134, 222.079 327.749 C 229.595 323.615, 231.474 322.526, 232 321.998 C 232.275 321.723, 233.850 320.826, 235.500 320.006 C 237.150 319.186, 243.450 315.635, 249.500 312.115 C 255.550 308.595, 262.975 304.361, 266 302.705 C 269.025 301.049, 272.694 298.863, 274.154 297.847 C 275.614 296.831, 277.045 296, 277.333 296 C 277.942 296, 290.257 288.819, 291 288.031 C 291.275 287.739, 293.300 286.552, 295.500 285.394 C 304.149 280.840, 311.628 276.606, 314.256 274.775 L 317.012 272.855 316.756 194.178 C 316.503 116.320, 316.479 115.498, 314.500 115.319 C 313.400 115.219, 310.700 116.114, 308.500 117.307 M 43.908 124.083 C 43.550 133.450, 43.939 166.273, 44.414 166.747 C 44.736 167.069, 45 165.971, 45 164.305 C 45 161.615, 45.279 161.331, 47.500 161.755 C 50.518 162.332, 50.693 163.550, 48 165.232 C 45.566 166.752, 45.206 170.519, 47.582 169.607 C 48.452 169.273, 49.352 169, 49.582 169 C 49.812 169, 50 168.395, 50 167.655 C 50 166.257, 53.733 162.368, 54.382 163.089 C 54.585 163.315, 55.062 164.625, 55.441 166 C 55.908 167.692, 55.827 168.061, 55.191 167.143 C 54.529 166.189, 54.046 166.117, 53.562 166.900 C 53.183 167.513, 53.491 168.251, 54.245 168.541 C 55.218 168.914, 55.600 170.919, 55.558 175.434 C 55.506 181.178, 55.329 181.709, 53.750 180.865 C 51.610 179.721, 51.434 177, 53.500 177 C 55.601 177, 55.368 175.759, 52.864 173.615 C 51.233 172.219, 51.033 171.598, 52.017 170.989 C 52.836 170.483, 52.339 170.249, 50.654 170.346 C 47.439 170.533, 47.291 171.650, 50.153 174.133 C 53.095 176.685, 50.914 176.507, 47.635 173.927 C 46.186 172.788, 45 170.913, 45 169.761 C 45 168.609, 44.692 167.975, 44.316 168.351 C 43.940 168.727, 43.714 191.414, 43.814 218.767 C 43.914 246.120, 43.996 268.837, 43.998 269.250 C 43.999 269.663, 44.477 270, 45.059 270 C 45.641 270, 45.843 269.555, 45.507 269.011 C 45.168 268.463, 45.532 268.267, 46.323 268.570 C 47.312 268.950, 47.711 268.437, 47.625 266.898 C 47.556 265.677, 48.115 264.470, 48.867 264.217 C 49.914 263.863, 50.142 264.715, 49.842 267.857 C 49.584 270.564, 49.885 272.125, 50.726 272.448 C 51.426 272.717, 52 273.653, 52 274.528 C 52 275.402, 51.543 275.835, 50.984 275.490 C 50.425 275.144, 50.226 274.443, 50.543 273.931 C 50.859 273.419, 50.191 273, 49.059 273 C 47.927 273, 47 273.465, 47 274.032 C 47 275.323, 51.070 276.901, 52.750 276.262 C 53.438 276, 54 276.509, 54 277.393 C 54 278.421, 54.862 279, 56.393 279 C 57.709 279, 59.058 279.708, 59.390 280.574 C 59.928 281.975, 60.160 281.983, 61.497 280.646 C 63.407 278.736, 63.399 278, 61.468 278 C 60.625 278, 59.584 277.049, 59.153 275.886 C 58.467 274.029, 58.193 273.950, 56.907 275.236 C 55.786 276.357, 55.184 276.423, 54.339 275.517 C 53.521 274.642, 53.726 274.028, 55.128 273.152 C 56.643 272.206, 57.522 272.296, 59.511 273.599 C 60.880 274.496, 62 275.611, 62 276.076 C 62 276.542, 63.845 277.420, 66.101 278.027 C 70.542 279.223, 70.714 279.709, 66.939 280.403 C 65.598 280.650, 64.275 280.938, 64 281.044 C 63.725 281.150, 63.163 281.184, 62.750 281.118 C 61.554 280.930, 61.857 281.433, 64.088 283.344 C 66.120 285.083, 66.158 285.073, 65.494 282.980 C 64.887 281.068, 65.036 280.949, 66.833 281.911 C 67.945 282.506, 69.637 282.693, 70.592 282.326 C 71.724 281.892, 72.091 282.043, 71.648 282.761 C 71.274 283.366, 71.402 284.131, 71.934 284.459 C 72.465 284.787, 73.373 284.171, 73.953 283.089 C 74.651 281.783, 74.668 280.913, 74.003 280.502 C 72.697 279.695, 72.694 272, 74 272 C 74.550 272, 75.016 273.688, 75.035 275.750 C 75.082 280.716, 77.013 284.230, 79.012 282.987 C 80.241 282.222, 80.281 281.708, 79.242 280.031 C 78.549 278.914, 78.350 278, 78.798 278 C 79.247 278, 80.103 276.762, 80.701 275.250 L 81.787 272.500 81.894 275.250 C 81.952 276.762, 82.393 278, 82.874 278 C 83.357 278, 83.739 261.008, 83.729 239.978 C 83.718 219.066, 84 201.666, 84.355 201.312 C 84.710 200.957, 85 220.542, 85 244.833 C 85 284.169, 84.829 289, 83.441 289 C 82.517 289, 82.173 288.530, 82.595 287.845 C 83.053 287.105, 82.868 286.964, 82.079 287.451 C 81.174 288.010, 81.403 288.727, 82.947 290.165 C 85.603 292.639, 84.763 294.172, 81.575 292.668 C 80.243 292.039, 79.558 291.273, 80.055 290.966 C 80.551 290.659, 79.998 289.586, 78.825 288.582 C 77.031 287.046, 76.791 287.014, 77.315 288.378 C 77.657 289.270, 77.501 290, 76.969 290 C 76.436 290, 76 290.450, 76 291 C 76 291.550, 76.640 292, 77.423 292 C 78.206 292, 80.184 293.125, 81.818 294.500 C 83.452 295.875, 85.286 297, 85.894 297 C 87.141 297, 87.539 258.325, 87.063 183.500 C 86.791 140.785, 86.408 135.012, 83.948 136.532 C 83.494 136.813, 82.701 136.288, 82.185 135.367 C 81.619 134.354, 80.605 133.938, 79.624 134.314 C 77.395 135.169, 77.573 136.060, 80.631 139.358 C 82.676 141.564, 83.451 141.895, 84.115 140.847 C 84.631 140.035, 84.975 142.562, 84.985 147.219 C 84.997 153.673, 84.754 154.843, 83.500 154.362 C 82.435 153.953, 82 154.452, 82 156.084 C 82 158.320, 81.960 158.329, 80.532 156.441 C 78.959 154.362, 78.518 151.924, 79.750 152.118 C 81.896 152.457, 82.998 151.821, 82.985 150.250 C 82.972 148.762, 82.828 148.724, 82.024 149.995 C 81.213 151.278, 80.865 151.207, 79.571 149.495 C 76.868 145.918, 78.200 143.126, 81 146.500 C 82.820 148.693, 84 148.336, 84 145.594 C 84 143.680, 83.591 143.294, 82 143.710 C 80.542 144.091, 79.979 143.727, 79.921 142.367 C 79.862 140.959, 79.699 140.864, 79.260 141.982 C 77.455 146.581, 72.853 147.044, 73.222 142.589 C 73.375 140.737, 73.742 140.371, 74.670 141.141 C 76.727 142.848, 78.121 141.198, 76.730 138.704 C 76.053 137.492, 75.050 136.169, 74.500 135.765 C 73.950 135.361, 74.513 135.024, 75.750 135.015 C 76.987 135.007, 78 134.620, 78 134.155 C 78 132.759, 74.462 130, 72.671 130 C 71.752 130, 71 129.550, 71 129 C 71 128.450, 70.100 128, 69 128 C 67.900 128, 67 127.550, 67 127 C 67 126.450, 66.325 126, 65.500 126 C 64.675 126, 64 126.675, 64 127.500 C 64 128.325, 63.523 129, 62.941 129 C 62.359 129, 62.149 129.432, 62.475 129.959 C 63.381 131.425, 60.745 135, 58.759 135 C 56.423 135, 56.530 133.775, 59 132.232 C 61.384 130.743, 61.622 129, 59.441 129 C 58.584 129, 58.141 128.581, 58.457 128.069 C 60.250 125.169, 51.576 126.902, 49.358 129.888 C 47.714 132.100, 45.499 129.961, 45.186 125.860 C 44.885 121.913, 44.036 120.732, 43.908 124.083 M 48 123 C 48 123.550, 48.450 124, 49 124 C 49.550 124, 50 124.498, 50 125.107 C 50 125.716, 49.325 125.955, 48.500 125.638 C 47.566 125.280, 47 125.645, 47 126.605 C 47 128.623, 49.956 128.029, 51.393 125.722 C 52.250 124.345, 52.161 123.727, 51 122.987 C 49.055 121.747, 48 121.751, 48 123 M 54 129.310 C 54 130.122, 54.708 131.058, 55.573 131.390 C 56.669 131.810, 57.048 131.489, 56.823 130.329 C 56.412 128.213, 54 127.341, 54 129.310 M 64.538 129.938 C 64.132 130.595, 64.054 131.387, 64.365 131.698 C 64.675 132.009, 64.497 133.071, 63.969 134.058 C 63.131 135.624, 63.383 135.806, 65.952 135.481 C 68.044 135.216, 68.753 135.480, 68.402 136.394 C 68.131 137.101, 68.678 138.314, 69.617 139.090 C 70.946 140.187, 71.419 140.221, 71.748 139.244 C 71.981 138.553, 72.470 138.172, 72.835 138.398 C 73.201 138.624, 73.500 137.491, 73.500 135.880 C 73.500 133.150, 73.297 132.995, 70.520 133.606 C 67.735 134.217, 67.637 134.140, 69.020 132.443 C 70.352 130.807, 70.328 130.690, 68.776 131.271 C 67.712 131.670, 66.713 131.310, 66.165 130.330 C 65.516 129.170, 65.078 129.065, 64.538 129.938 M 49 131.961 C 49 132.490, 48.110 133.751, 47.022 134.764 C 45.314 136.356, 45.068 137.797, 45.213 145.349 C 45.343 152.126, 45.619 153.654, 46.441 152.148 C 47.296 150.578, 47.729 150.453, 48.690 151.496 C 49.344 152.206, 49.644 153.022, 49.357 153.310 C 48.399 154.268, 53.131 158.164, 54.577 157.609 C 56.854 156.735, 56.329 154.101, 54 154.710 C 51.749 155.299, 51.371 154.029, 53.242 152.158 C 54.230 151.170, 54.180 150.725, 52.992 149.974 C 52.171 149.455, 50.761 149.024, 49.857 149.015 C 47.971 148.998, 46.804 146.675, 47.616 144.557 C 47.921 143.763, 49.594 142.976, 51.335 142.807 C 54.210 142.528, 54.500 142.187, 54.500 139.090 C 54.500 137.136, 53.929 135.486, 53.164 135.227 C 52.209 134.905, 51.924 135.594, 52.164 137.638 C 52.432 139.920, 52.072 140.561, 50.391 140.801 C 48.622 141.054, 48.299 140.610, 48.391 138.053 C 48.451 136.377, 49.047 135.004, 49.715 135.002 C 50.383 135.001, 51.411 134.100, 52 133 C 52.907 131.305, 52.760 131, 51.035 131 C 49.916 131, 49 131.432, 49 131.961 M 46.272 140 C 46.272 142.475, 46.467 143.488, 46.706 142.250 C 46.944 141.012, 46.944 138.988, 46.706 137.750 C 46.467 136.512, 46.272 137.525, 46.272 140 M 58 143 C 58 143.550, 58.702 144, 59.559 144 C 60.416 144, 60.840 143.550, 60.500 143 C 60.160 142.450, 59.459 142, 58.941 142 C 58.423 142, 58 142.450, 58 143 M 48 145.892 C 48 147.667, 53.252 148.176, 54.870 146.558 C 56.281 145.147, 56.030 145, 52.214 145 C 49.896 145, 48 145.401, 48 145.892 M 62.100 153.250 C 62.040 158.483, 62.402 162, 63 162 C 64.177 162, 64.177 150.674, 63 147 C 62.459 145.309, 62.167 147.333, 62.100 153.250 M 70.667 149.667 C 69.417 150.916, 69.997 151.860, 72.209 152.180 C 73.565 152.377, 74.685 153.465, 75.109 155 C 76.238 159.083, 76.125 183.771, 74.975 184.342 C 74.411 184.621, 74.524 184.734, 75.225 184.593 C 76.179 184.400, 76.569 180.393, 76.775 168.693 C 77.032 154.118, 76.912 152.912, 75.025 151.025 C 72.904 148.904, 71.780 148.553, 70.667 149.667 M 46.635 155.803 C 45.676 157.330, 49.431 161.015, 51.903 160.973 C 52.941 160.956, 52.549 160.357, 50.783 159.262 C 49.288 158.335, 47.927 156.884, 47.759 156.038 C 47.518 154.828, 47.278 154.778, 46.635 155.803 M 83.853 158.500 C 83.497 159.050, 83.175 165.800, 83.139 173.500 C 83.091 183.663, 83.345 186.838, 84.065 185.085 C 85.134 182.485, 84.929 156.838, 83.853 158.500 M 128 162.059 C 128 162.641, 127.550 162.840, 127 162.500 C 126.342 162.093, 126 172.347, 126 192.512 C 126 218.406, 126.232 223.375, 127.500 224.643 C 128.325 225.468, 129 225.831, 129 225.449 C 129 225.067, 129.604 225.256, 130.342 225.869 C 131.080 226.481, 131.980 226.687, 132.342 226.325 C 132.704 225.963, 133 226.166, 133 226.776 C 133 227.386, 133.934 227.705, 135.076 227.485 C 136.457 227.219, 138.317 228.250, 140.628 230.561 C 144.154 234.087, 149.821 237.104, 151.324 236.255 C 151.778 235.999, 150.944 235.165, 149.470 234.400 C 147.997 233.636, 146.355 233.280, 145.822 233.610 C 145.289 233.940, 145.433 233.280, 146.142 232.145 C 147.283 230.317, 147.616 230.248, 149.047 231.542 C 149.935 232.346, 150.993 232.674, 151.398 232.269 C 151.802 231.865, 153.903 231.011, 156.066 230.372 C 160.127 229.173, 161.328 230.068, 158.250 231.998 C 156.740 232.945, 156.808 233.011, 158.750 232.480 C 160.954 231.878, 161.379 232.569, 161.291 236.617 C 161.278 237.231, 161.986 237.681, 162.865 237.617 C 163.861 237.544, 164.513 238.358, 164.596 239.782 C 164.763 242.619, 165.994 244.038, 166.015 241.417 C 166.027 239.905, 166.219 239.798, 166.923 240.909 C 167.413 241.684, 167.587 242.914, 167.308 243.641 C 166.662 245.322, 162.902 243.538, 163.260 241.720 C 163.392 241.049, 162.927 240.616, 162.227 240.758 C 161.514 240.902, 160.688 239.691, 160.352 238.008 C 159.922 235.858, 159.175 235, 157.735 235 C 156.627 235, 155.177 234.256, 154.512 233.347 C 153.779 232.345, 152.799 232.006, 152.023 232.486 C 151.035 233.096, 151.127 233.492, 152.427 234.219 C 153.648 234.902, 153.823 235.509, 153.063 236.424 C 152.285 237.361, 152.657 237.978, 154.508 238.822 C 155.879 239.446, 157 240.417, 157 240.979 C 157 241.540, 157.643 242, 158.429 242 C 159.214 242, 160.462 242.563, 161.202 243.250 C 161.942 243.938, 163.099 244.613, 163.774 244.750 C 164.448 244.887, 165.538 245.113, 166.196 245.250 C 166.854 245.387, 168.340 246.482, 169.498 247.682 C 170.976 249.214, 172.034 249.591, 173.051 248.947 C 174.256 248.185, 174.211 248.028, 172.781 248.015 C 171.667 248.005, 171.265 247.472, 171.638 246.500 C 172.048 245.432, 171.545 245, 169.893 245 C 167.754 245, 167.699 244.873, 169.190 243.382 C 171.110 241.462, 172.765 242.252, 174.083 245.719 C 174.758 247.494, 174.676 248.726, 173.804 249.872 C 173.123 250.767, 172.948 251.178, 173.416 250.784 C 173.883 250.390, 175.107 251.138, 176.135 252.445 C 178.442 255.378, 179.077 255.290, 186.520 251.018 C 189.809 249.130, 194.300 246.629, 196.500 245.461 C 198.700 244.293, 202.774 241.975, 205.553 240.311 C 211.431 236.790, 218.257 232.924, 226 228.730 C 229.025 227.091, 232.063 225.046, 232.750 224.184 C 233.688 223.009, 234 215.075, 234 192.416 C 234 159.736, 234.207 160.953, 228.668 161.030 C 226.653 161.059, 226.629 161.136, 228.331 162.125 C 230.203 163.214, 229.367 163.816, 218.258 169.378 C 217.025 169.995, 216.012 170.838, 216.008 171.250 C 216.004 171.662, 215.100 172, 214 172 C 212.900 172, 212 172.450, 212 173 C 212 173.550, 211.100 174, 210 174 C 208.900 174, 208 174.367, 208 174.815 C 208 175.263, 206.425 176.381, 204.500 177.299 C 202.575 178.217, 201 179.473, 201 180.091 C 201 180.709, 200.358 180.968, 199.573 180.666 C 198.788 180.365, 197.608 180.767, 196.951 181.559 C 196.293 182.352, 195.317 183, 194.782 183 C 194.247 183, 192.614 183.847, 191.154 184.883 C 186.786 187.981, 181.035 191, 179.500 191 C 178.170 191, 171.818 187.824, 169.500 186 C 167.159 184.158, 160.824 181, 159.470 181 C 158.661 181, 158 180.618, 158 180.150 C 158 179.071, 146.157 172, 144.350 172 C 143.608 172, 142.996 171.662, 142.992 171.250 C 142.988 170.838, 141.975 170.005, 140.742 169.399 C 137.894 168.001, 129.651 163.652, 129.029 163.219 C 128.770 163.039, 129.220 162.473, 130.029 161.961 C 131.263 161.181, 131.218 161.028, 129.750 161.015 C 128.787 161.007, 128 161.477, 128 162.059 M 129.657 168.794 C 128.819 170.246, 128.922 204, 129.764 204 C 130.247 204, 130.737 196.711, 130.852 187.803 C 130.966 178.895, 131.272 171.395, 131.530 171.136 C 131.789 170.878, 132 179.704, 132 190.750 C 132 205.258, 131.673 210.942, 130.824 211.225 C 129.925 211.525, 129.919 212.974, 130.800 217.356 C 131.954 223.104, 134.163 226.635, 135.923 225.547 C 136.439 225.228, 137.144 225.425, 137.490 225.984 C 137.835 226.543, 138.654 226.993, 139.309 226.985 C 140.025 226.975, 139.901 226.582, 139 226 C 137.749 225.192, 137.832 225.008, 139.500 224.897 C 140.600 224.823, 141.957 224.812, 142.516 224.872 C 143.074 224.931, 144.097 224.074, 144.788 222.967 C 145.857 221.256, 145.779 220.856, 144.273 220.300 C 143.298 219.940, 142.239 219.260, 141.920 218.789 C 140.913 217.301, 138.008 219.121, 137.376 221.637 C 136.932 223.406, 136.441 223.781, 135.543 223.036 C 134.868 222.476, 134.020 222.313, 133.658 222.675 C 133.296 223.037, 133.045 221.796, 133.100 219.917 C 133.190 216.825, 133.267 216.738, 133.915 219 L 134.631 221.500 135.071 219 C 135.313 217.625, 135.238 214.475, 134.905 212 C 134.514 209.090, 134.247 208.492, 134.150 210.309 C 134.068 211.854, 133.647 212.900, 133.216 212.634 C 132.156 211.979, 132.977 204, 134.105 204 C 134.597 204, 135.036 201.637, 135.079 198.750 C 135.122 195.863, 135.385 194.063, 135.662 194.750 C 136.344 196.440, 138 196.339, 138 194.607 C 138 193.841, 138.624 192.975, 139.387 192.682 C 140.360 192.308, 140.623 192.724, 140.270 194.075 C 139.865 195.625, 140.294 196, 142.477 196 C 144.346 196, 145.350 195.379, 145.710 194 C 145.998 192.900, 146.856 192, 147.617 192 C 148.377 192, 149 191.550, 149 191 C 149 189.558, 146.252 189.767, 145.708 191.250 C 145.351 192.225, 144.969 192.235, 143.972 191.297 C 143.059 190.438, 142.143 190.388, 140.769 191.124 C 137.615 192.811, 136.081 191.510, 136.346 187.371 C 136.478 185.311, 137.188 183.437, 137.931 183.190 C 138.732 182.923, 138.998 183.194, 138.587 183.859 C 138.147 184.571, 138.460 184.761, 139.448 184.382 C 140.606 183.937, 141 184.448, 141 186.393 C 141 187.827, 141.450 189, 142 189 C 142.550 189, 143 187.947, 143 186.661 C 143 184.226, 138.771 181.405, 136.877 182.576 C 136.274 182.949, 136.017 180.802, 136.202 176.936 C 136.371 173.395, 136.067 170.544, 135.500 170.347 C 134.868 170.128, 134.606 173.313, 134.789 179 C 134.973 184.743, 134.702 188, 134.039 188 C 133.394 188, 133 184.437, 133 178.607 C 133 171.271, 132.678 169.091, 131.532 168.651 C 130.725 168.341, 129.881 168.405, 129.657 168.794 M 138.951 170 C 138.234 171.737, 138.434 175, 139.259 175 C 139.832 175, 139.768 175.575, 139.105 176.373 C 137.698 178.069, 138.695 181, 140.678 181 C 142.459 181, 145.147 183.520, 144.286 184.381 C 143.945 184.721, 144.102 185, 144.633 185 C 145.165 185, 146.028 184.585, 146.550 184.077 C 147.709 182.951, 153 183.859, 153 185.184 C 153 185.707, 152.147 185.864, 151.105 185.533 C 149.968 185.172, 148.516 185.627, 147.471 186.671 C 145.452 188.691, 147.210 189.901, 149.455 188.037 C 150.527 187.148, 151.317 187.291, 152.922 188.665 C 155.372 190.763, 155.586 192, 153.500 192 C 151.819 192, 151.455 194.545, 153 195.500 C 153.550 195.840, 154 195.390, 154 194.500 C 154 193.610, 154.450 193.160, 155 193.500 C 156.417 194.376, 156.242 197.742, 154.750 198.303 C 154 198.584, 154.501 199.228, 156 199.913 C 158.355 200.987, 158.304 201.023, 155.128 200.527 C 152.146 200.062, 151.907 200.183, 153.064 201.577 C 154.146 202.881, 154.129 203.302, 152.965 204.022 C 152.191 204.500, 151.907 205.240, 152.333 205.667 C 152.760 206.093, 153.484 205.835, 153.943 205.093 C 154.401 204.351, 155.280 204.055, 155.895 204.435 C 156.511 204.816, 157.284 204.423, 157.614 203.563 C 157.963 202.654, 159.400 202, 161.048 202 C 162.607 202, 164.160 201.550, 164.500 201 C 164.840 200.450, 164.704 200, 164.199 200 C 162.289 200, 156.015 193.125, 156.580 191.652 C 156.895 190.832, 156.391 189, 155.461 187.581 C 154.531 186.161, 154.102 185, 154.507 185 C 154.913 185, 154.701 184.345, 154.036 183.544 C 153.372 182.743, 153.159 181.552, 153.563 180.898 C 154.098 180.032, 153.543 179.898, 151.523 180.405 C 149.265 180.971, 148.858 180.812, 149.342 179.551 C 149.669 178.698, 149.510 178, 148.988 178 C 148.465 178, 147.756 179.125, 147.411 180.500 C 147.066 181.875, 146.430 183, 145.999 183 C 144.554 183, 143.916 179.670, 145.208 178.872 C 146.205 178.255, 146.220 177.820, 145.274 176.874 C 144.329 175.929, 143.926 176.029, 143.426 177.333 C 142.743 179.113, 139 179.677, 139 178 C 139 177.450, 139.900 177, 141 177 C 143.265 177, 143.699 174.513, 141.647 173.300 C 140.902 172.860, 140.038 171.825, 139.726 171 C 139.413 170.175, 139.065 169.725, 138.951 170 M 62 175 C 62 175.550, 62.450 176, 63 176 C 63.550 176, 64 175.550, 64 175 C 64 174.450, 63.550 174, 63 174 C 62.450 174, 62 174.450, 62 175 M 80 181.941 C 80 185.209, 79.573 188.146, 79.050 188.469 C 77.606 189.361, 79.525 208, 81.061 208 C 81.607 208, 82 201.304, 82 192 C 82 182, 81.625 176, 81 176 C 80.446 176, 80 178.647, 80 181.941 M 45 178.906 C 45 180.320, 45.517 180.678, 47 180.290 C 48.100 180.002, 49 179.144, 49 178.383 C 49 177.623, 48.100 177, 47 177 C 45.699 177, 45 177.667, 45 178.906 M 72.232 181 C 72.232 182.925, 72.438 183.713, 72.689 182.750 C 72.941 181.787, 72.941 180.213, 72.689 179.250 C 72.438 178.287, 72.232 179.075, 72.232 181 M 47.716 183.387 C 45.321 185.607, 45.016 186.589, 45.136 191.702 C 45.211 194.891, 45.481 196.375, 45.737 195 C 45.993 193.625, 46.690 192.197, 47.287 191.826 C 48.036 191.361, 47.943 190.636, 46.985 189.482 C 45.773 188.022, 45.907 187.574, 48.049 185.928 C 49.397 184.892, 50.837 184.034, 51.250 184.022 C 52.578 183.983, 52.049 186.715, 50.476 188.020 C 49.638 188.716, 49.173 189.507, 49.444 189.778 C 50.017 190.350, 54.957 185.865, 54.983 184.750 C 54.992 184.338, 54.487 184, 53.860 184 C 53.233 184, 52.206 183.296, 51.576 182.435 C 50.565 181.053, 50.115 181.164, 47.716 183.387 M 156.278 183.500 C 156.530 185.576, 161 187.062, 161 185.070 C 161 184.481, 160.137 184, 159.083 184 C 158.029 184, 156.912 183.438, 156.601 182.750 C 156.290 182.063, 156.144 182.400, 156.278 183.500 M 161.250 187.496 C 159.161 189.868, 159.823 192.068, 163.693 195.613 C 166.379 198.073, 167.601 198.655, 168.177 197.747 C 168.786 196.789, 168.973 196.822, 168.985 197.890 C 168.993 198.654, 169.744 199.823, 170.653 200.488 C 171.629 201.202, 171.990 202.208, 171.533 202.946 C 170.652 204.372, 170.718 223.175, 171.641 233.250 C 172.075 238, 172.665 240, 173.629 240 C 174.583 240, 175.033 238.554, 175.107 235.250 L 175.214 230.500 176.204 234.943 C 177.027 238.634, 176.924 239.582, 175.597 240.553 C 173.552 242.048, 173.559 243.617, 175.614 244.405 C 176.706 244.825, 177.075 245.829, 176.753 247.512 C 176.491 248.881, 176.679 250, 177.169 250 C 177.673 250, 178.014 238.032, 177.951 222.500 C 177.887 206.498, 177.456 195, 176.920 195 C 176.414 195, 176 196.125, 176 197.500 C 176 199.363, 175.472 200, 173.927 200 L 171.855 200 174.002 197.270 L 176.150 194.540 173.825 192.756 C 172.546 191.775, 170.621 190.303, 169.547 189.486 C 168.472 188.669, 167.010 188, 166.297 188 C 165.583 188, 165 187.550, 165 187 C 165 185.543, 162.702 185.847, 161.250 187.496 M 55.158 189 C 55.158 190.375, 55.385 190.938, 55.662 190.250 C 55.940 189.563, 55.940 188.438, 55.662 187.750 C 55.385 187.063, 55.158 187.625, 55.158 189 M 137 189.031 C 137 189.564, 137.675 190, 138.500 190 C 139.325 190, 140 189.823, 140 189.607 C 140 189.391, 139.325 188.955, 138.500 188.638 C 137.675 188.322, 137 188.499, 137 189.031 M 163.385 189.438 C 162.599 191.487, 166.580 196, 169.174 196 C 171.802 196, 171.420 194.513, 168.444 193.156 C 167.038 192.516, 166.133 191.594, 166.433 191.109 C 166.733 190.624, 166.313 189.675, 165.501 189.001 C 164.307 188.010, 163.901 188.094, 163.385 189.438 M 84.310 194.500 C 84.315 197.800, 84.502 199.029, 84.725 197.232 C 84.947 195.435, 84.943 192.735, 84.715 191.232 C 84.486 189.729, 84.304 191.200, 84.310 194.500 M 47.505 194.976 C 46.782 198.269, 47.442 200, 49.420 200 C 50.253 200, 50.558 199.141, 50.267 197.617 C 50.017 196.307, 50.304 194.930, 50.906 194.558 C 51.551 194.160, 52 194.659, 52 195.774 C 52 198.472, 53.014 199.129, 54.652 197.491 C 56.724 195.419, 54.351 192, 50.839 192 C 48.679 192, 48.032 192.578, 47.505 194.976 M 45.286 203.500 C 45.294 206.250, 45.488 207.256, 45.718 205.736 C 45.947 204.216, 45.941 201.966, 45.704 200.736 C 45.467 199.506, 45.279 200.750, 45.286 203.500 M 51.024 205.887 C 50.116 210.165, 50.070 212.284, 50.857 213.637 C 51.846 215.340, 51.949 215.286, 52.049 213 C 52.111 211.563, 52.395 211.098, 52.715 211.907 C 53.092 212.860, 53.660 212.375, 54.473 210.407 C 55.343 208.301, 55.377 207.018, 54.596 205.750 C 53.809 204.471, 53.855 203.462, 54.768 202 C 55.850 200.267, 55.767 200, 54.145 200 C 52.669 200, 52.009 201.246, 51.024 205.887 M 140.211 202.233 C 138.251 204.193, 138 204.242, 138 202.663 C 138 201.684, 137.550 201.160, 137 201.500 C 136.450 201.840, 136 203.441, 136 205.059 C 136 207.292, 136.462 208, 137.918 208 C 140.673 208, 143.074 209.072, 142.478 210.036 C 142.197 210.490, 142.494 211.187, 143.138 211.585 C 143.869 212.037, 144.041 211.876, 143.595 211.155 C 142.414 209.242, 147.130 209.803, 148.608 211.750 C 149.434 212.838, 149.948 213.023, 149.968 212.238 C 149.991 211.328, 151.116 211.155, 154 211.616 C 157.614 212.194, 158 212.050, 158 210.128 C 158 208.667, 158.627 208, 160 208 C 161.100 208, 162 207.386, 162 206.637 C 162 204.373, 157.598 205.277, 156.507 207.764 C 155.861 209.236, 154.987 209.808, 154.007 209.398 C 150.427 207.904, 145.516 207.166, 144.975 208.040 C 144.659 208.552, 144.400 207.402, 144.400 205.485 C 144.400 200.644, 142.937 199.508, 140.211 202.233 M 174.431 203.112 C 174.053 203.723, 174.184 204.511, 174.722 204.862 C 175.260 205.213, 175.957 206.175, 176.271 207 C 176.585 207.825, 176.878 207.037, 176.921 205.250 C 176.999 202.032, 175.757 200.966, 174.431 203.112 M 47.552 207.500 C 47.880 210.862, 47.729 212.026, 47.089 211.052 C 45.556 208.719, 44.586 214.430, 45.685 219.323 L 46.623 223.500 47.877 216.394 C 48.778 211.295, 48.840 208.330, 48.098 205.894 C 47.141 202.754, 47.100 202.874, 47.552 207.500 M 163 205 C 163 205.550, 163.675 206, 164.500 206 C 165.325 206, 166 205.550, 166 205 C 166 204.450, 165.325 204, 164.500 204 C 163.675 204, 163 204.450, 163 205 M 129 206.500 C 129 207.325, 129.450 208, 130 208 C 130.550 208, 131 207.325, 131 206.500 C 131 205.675, 130.550 205, 130 205 C 129.450 205, 129 205.675, 129 206.500 M 74 219 C 74 226.333, 74.200 232.133, 74.445 231.888 C 75.143 231.190, 75.303 206.970, 74.615 206.281 C 74.277 205.943, 74 211.667, 74 219 M 80 231.262 C 80 250.013, 79.745 254.112, 78.500 255.357 C 76.755 257.102, 76.308 272, 78 272 C 78.583 272, 79 268.667, 79 264 C 79 257.534, 79.289 256, 80.509 256 C 81.830 256, 81.937 253.098, 81.370 232.750 C 81.014 219.963, 80.560 209.313, 80.361 209.083 C 80.163 208.854, 80 218.835, 80 231.262 M 175.272 213 C 175.272 215.475, 175.467 216.488, 175.706 215.250 C 175.944 214.012, 175.944 211.988, 175.706 210.750 C 175.467 209.512, 175.272 210.525, 175.272 213 M 158.740 211.886 C 158.399 213.189, 157.384 214, 156.094 214 C 154.424 214, 154 214.621, 154 217.063 C 154 219.665, 154.338 220.079, 156.250 219.813 C 158.239 219.536, 158.462 219.878, 158.175 222.750 C 157.996 224.537, 158.281 226, 158.808 226 C 160.143 226, 161.359 213.464, 160.221 211.431 C 159.400 209.963, 159.229 210.015, 158.740 211.886 M 49.992 223.750 C 49.980 235.441, 52.264 271, 53.026 271 C 53.667 271, 54.986 253.087, 54.995 244.250 C 55.004 236.464, 53.086 239.871, 52.744 248.250 C 52.559 252.787, 52.315 247.387, 52.204 236.250 C 52.076 223.552, 51.627 216, 51 216 C 50.420 216, 49.997 219.255, 49.992 223.750 M 150.307 222.325 C 149.350 223.929, 143.154 226.213, 141.885 225.429 C 140.735 224.718, 140.777 226.098, 141.963 227.974 C 142.577 228.945, 142.487 229.706, 141.697 230.208 C 140.867 230.736, 140.999 230.974, 142.128 230.985 C 143.023 230.993, 144.474 229.988, 145.351 228.750 C 146.763 226.759, 147.093 226.677, 148.223 228.039 C 149.540 229.627, 155.942 230.627, 156.074 229.266 C 156.115 228.845, 156.337 227.488, 156.568 226.250 C 156.843 224.775, 156.498 224, 155.565 224 C 154.783 224, 153.462 223.319, 152.629 222.486 C 151.376 221.233, 150.976 221.206, 150.307 222.325 M 150.496 226.007 C 149.736 227.236, 152.488 228.434, 153.968 227.520 C 154.554 227.158, 154.774 226.443, 154.457 225.931 C 153.694 224.696, 151.277 224.742, 150.496 226.007 M 73.544 240.500 C 73.155 243.800, 72.799 246.950, 72.752 247.500 C 72.704 248.050, 73.048 250.300, 73.514 252.500 C 74.298 256.196, 74.417 256.310, 75.082 254 C 76.062 250.590, 76.044 238.960, 75.055 236.500 C 74.456 235.011, 74.070 236.032, 73.544 240.500 M 168.750 235.572 C 168.338 235.991, 168 237.473, 168 238.867 C 168 240.687, 168.305 241.095, 169.085 240.315 C 169.681 239.719, 170.019 238.236, 169.835 237.020 C 169.651 235.805, 169.162 235.153, 168.750 235.572 M 156 237.469 C 156 238.361, 156.587 238.712, 157.494 238.364 C 158.316 238.048, 158.740 237.388, 158.435 236.895 C 157.563 235.483, 156 235.851, 156 237.469 M 47.116 247.691 C 47.052 252.196, 47.350 256.098, 47.778 256.363 C 48.206 256.628, 48.408 253.617, 48.226 249.672 C 47.743 239.195, 47.249 238.312, 47.116 247.691 M 45.326 257.500 C 45.428 261.600, 45.914 264.388, 46.500 264.229 C 47.727 263.897, 47.564 258.717, 46.180 254 C 45.263 250.876, 45.171 251.252, 45.326 257.500 M 44.333 266.500 C 44.333 267.220, 44.933 267.579, 45.667 267.298 C 46.400 267.016, 47 266.657, 47 266.500 C 47 266.343, 46.400 265.984, 45.667 265.702 C 44.933 265.421, 44.333 265.780, 44.333 266.500 M 45.459 271.067 C 45.096 271.653, 45.070 272.403, 45.400 272.733 C 45.730 273.063, 46 272.782, 46 272.108 C 46 271.434, 46.450 271.160, 47 271.500 C 47.550 271.840, 48 271.641, 48 271.059 C 48 269.686, 46.309 269.691, 45.459 271.067 M 126.582 295.648 C 126.763 319.498, 126.907 321.370, 128.638 322.359 C 131.036 323.729, 133.160 324.068, 132.483 322.973 C 132.194 322.504, 132.878 322.190, 134.003 322.275 C 135.194 322.365, 135.848 322.953, 135.568 323.683 C 135.304 324.372, 135.548 325.220, 136.110 325.568 C 137.907 326.678, 138.318 325.138, 136.854 322.781 C 136.075 321.527, 135.601 319.444, 135.801 318.154 C 136.120 316.092, 136.558 315.882, 139.415 316.418 C 142.258 316.951, 142.821 316.687, 143.902 314.316 C 144.815 312.312, 145.351 311.950, 145.957 312.930 C 146.408 313.660, 147.272 313.950, 147.877 313.576 C 148.569 313.149, 148.756 313.472, 148.382 314.448 C 148.054 315.302, 148.284 316, 148.893 316 C 149.502 316, 150 316.900, 150 318 C 150 319.431, 150.667 320, 152.345 320 C 153.635 320, 155.519 320.916, 156.532 322.035 C 157.545 323.155, 158.965 323.844, 159.687 323.567 C 161.289 322.952, 161.375 324.431, 159.897 327.193 C 159.072 328.734, 159.099 329.443, 160.004 330.002 C 160.669 330.414, 160.951 331.594, 160.630 332.625 C 160.309 333.656, 160.478 335.175, 161.008 336 C 161.537 336.825, 161.976 337.130, 161.985 336.679 C 161.993 336.227, 162.648 336.505, 163.441 337.298 C 164.233 338.090, 164.667 339.585, 164.406 340.619 C 163.859 342.783, 168.013 345.228, 170.073 343.955 C 170.913 343.436, 170.532 343.070, 168.912 342.841 C 167.165 342.594, 166.500 341.869, 166.500 340.214 C 166.500 338.956, 165.943 337.583, 165.261 337.161 C 164.547 336.720, 165.607 336.381, 167.761 336.361 C 169.818 336.341, 170.713 336.510, 169.750 336.736 C 168.787 336.962, 167.966 337.451, 167.923 337.823 C 167.881 338.195, 167.701 339.256, 167.522 340.181 C 167.302 341.321, 167.675 341.678, 168.682 341.292 C 169.768 340.875, 169.847 340.524, 168.977 339.986 C 167.281 338.938, 169.393 337.830, 171.526 338.648 C 173.022 339.223, 173.083 339.024, 172.020 337.037 C 171.146 335.404, 170.977 330.887, 171.415 320.885 C 171.785 312.450, 171.655 307, 171.083 307 C 170.566 307, 169.423 306.280, 168.544 305.401 C 167.243 304.100, 166.662 304.036, 165.430 305.058 C 162.984 307.088, 161.421 304.700, 163.560 302.201 C 164.986 300.535, 165.706 300.365, 167.627 301.240 C 168.911 301.825, 170.226 303.135, 170.548 304.152 C 170.871 305.168, 171.757 306, 172.518 306 C 173.278 306, 174.359 306.788, 174.920 307.750 C 175.504 308.753, 175.952 308.959, 175.970 308.233 C 176.011 306.518, 167.038 298.022, 165.071 297.914 C 164.207 297.867, 164.832 297.430, 166.460 296.944 C 168.514 296.331, 169.645 296.425, 170.155 297.251 C 170.560 297.906, 171.253 298.056, 171.696 297.584 C 172.138 297.112, 171.935 296.524, 171.244 296.278 C 170.553 296.031, 170.249 295.406, 170.568 294.890 C 170.887 294.373, 170.778 294.033, 170.324 294.134 C 168.624 294.512, 158 289.956, 158 288.848 C 158 288.382, 157.277 288, 156.393 288 C 155.391 288, 154.998 288.553, 155.349 289.468 C 155.659 290.275, 155.482 291.202, 154.956 291.527 C 153.412 292.481, 153.854 295.213, 155.912 297.436 C 157.556 299.211, 157.624 299.682, 156.400 300.801 C 155.224 301.875, 154.873 301.831, 154.381 300.551 C 154.054 299.698, 153.159 299, 152.393 299 C 151.627 299, 151 298.550, 151 298 C 151 297.450, 151.787 296.993, 152.750 296.985 C 153.763 296.976, 154.067 296.660, 153.473 296.235 C 152.908 295.831, 152.499 294.150, 152.565 292.500 C 152.694 289.297, 151.313 286.688, 149.939 287.538 C 149.480 287.821, 149.269 287.198, 149.471 286.151 C 149.863 284.115, 147.135 283.636, 145.765 285.500 C 145.345 286.072, 145.024 285.786, 145.015 284.833 C 145.007 283.917, 145.546 282.985, 146.214 282.762 C 146.882 282.539, 145.982 281.717, 144.214 280.935 C 142.446 280.152, 141 279.117, 141 278.633 C 141 278.150, 140.365 278.282, 139.589 278.926 C 138.608 279.740, 137.978 279.773, 137.520 279.032 C 136.622 277.579, 134.997 278.732, 135.015 280.809 C 135.026 281.936, 135.279 282.109, 135.776 281.327 C 136.268 280.555, 137.713 280.401, 140.011 280.877 C 143.240 281.545, 143.351 281.686, 141.500 282.769 C 139.653 283.850, 139.641 283.942, 141.340 283.970 C 142.352 283.986, 144.073 285.012, 145.166 286.250 C 146.258 287.488, 146.867 287.938, 146.517 287.250 C 146.168 286.563, 146.359 286, 146.941 286 C 148.557 286, 148.202 288.709, 146.500 289.362 C 145.675 289.678, 144.287 289.664, 143.416 289.329 C 142.141 288.840, 142.092 288.557, 143.166 287.876 C 144.114 287.275, 143.821 287.026, 142.156 287.015 C 140.662 287.006, 139.623 286.276, 139.290 285 C 139.002 283.900, 138.118 283, 137.324 283 C 136.531 283, 136.160 283.450, 136.500 284 C 136.840 284.550, 136.703 285, 136.196 285 C 135.676 285, 135.380 289.476, 135.517 295.237 C 135.651 300.867, 135.393 306.380, 134.944 307.487 C 134.446 308.714, 134.102 305.105, 134.063 298.250 C 134.029 292.063, 133.662 286.999, 133.250 286.998 C 132.838 286.997, 132.725 294.653, 133 304.011 C 133.409 317.922, 133.257 320.933, 132.168 320.513 C 131.436 320.231, 130.518 320, 130.130 320 C 129.741 320, 129.298 316.625, 129.144 312.500 C 128.911 306.237, 129.123 305, 130.432 305 C 131.629 305, 132 303.910, 132 300.393 C 132 296.693, 131.702 295.900, 130.488 296.366 C 129.184 296.866, 129.012 295.386, 129.238 285.632 C 129.487 274.861, 129.596 274.345, 131.500 274.869 C 133.249 275.350, 133.280 275.465, 131.750 275.783 C 129.884 276.171, 129.276 279, 131.059 279 C 131.641 279, 131.869 278.597, 131.565 278.105 C 130.715 276.729, 133.608 276.008, 134.878 277.278 C 135.495 277.895, 136 278.030, 136 277.578 C 136 277.125, 136.675 277.315, 137.500 278 C 138.432 278.774, 139 278.846, 139 278.190 C 139 277.610, 138.139 276.862, 137.088 276.528 C 136.036 276.194, 133.499 274.589, 131.450 272.960 C 129.401 271.332, 127.424 270, 127.056 270 C 126.688 270, 126.475 281.541, 126.582 295.648 M 63.250 272.692 C 64.213 272.942, 65 273.741, 65 274.466 C 65 276.042, 67.271 277.083, 68.689 276.157 C 69.244 275.796, 69.689 274.825, 69.678 274 C 69.664 272.937, 68.470 272.462, 65.579 272.369 C 63.336 272.296, 62.288 272.442, 63.250 272.692 M 82.195 282.500 C 82.215 284.150, 82.439 284.704, 82.693 283.731 C 82.947 282.758, 82.930 281.408, 82.656 280.731 C 82.382 280.054, 82.175 280.850, 82.195 282.500 M 70 286.441 C 70 287.298, 70.450 288, 71 288 C 71.550 288, 72 287.577, 72 287.059 C 72 286.541, 71.550 285.840, 71 285.500 C 70.450 285.160, 70 285.584, 70 286.441 M 151.575 285.879 C 151.265 286.380, 151.684 287.048, 152.506 287.364 C 153.328 287.679, 154 287.528, 154 287.028 C 154 285.672, 152.223 284.830, 151.575 285.879 M 73.500 289 C 73.840 289.550, 74.541 290, 75.059 290 C 75.577 290, 76 289.550, 76 289 C 76 288.450, 75.298 288, 74.441 288 C 73.584 288, 73.160 288.450, 73.500 289 M 156.362 291.500 C 155.516 293.702, 156.308 294.191, 159.068 293.171 L 161.426 292.298 159.198 291.106 C 157.354 290.119, 156.865 290.187, 156.362 291.500 M 140.163 296.598 C 137.755 298.285, 137.225 302, 139.393 302 C 140.159 302, 141.057 302.706, 141.388 303.569 C 141.812 304.674, 142.657 304.933, 144.245 304.445 C 147.385 303.479, 147.363 303.568, 145.464 299.565 C 143.307 295.019, 142.813 294.743, 140.163 296.598 M 173.250 300.250 C 173.864 302.096, 176.667 302.335, 176.667 300.541 C 176.667 299.689, 175.810 299, 174.750 299 C 173.661 299, 173.013 299.540, 173.250 300.250 M 153.250 304.662 C 151.752 305.267, 151.578 309.621, 153.016 310.510 C 153.575 310.856, 153.800 311.515, 153.515 311.976 C 153.230 312.437, 153.898 312.578, 154.999 312.290 C 156.107 312, 157 310.926, 157 309.883 C 157 308.848, 157.675 308, 158.500 308 C 160.309 308, 160.517 311.623, 158.750 312.341 C 157.849 312.706, 157.811 313.078, 158.615 313.674 C 160.809 315.299, 161.190 318.792, 159.294 319.895 C 157.308 321.051, 157.956 321.338, 160.418 320.393 C 161.651 319.920, 162 318.251, 162 312.834 C 162 308.454, 161.630 306.111, 161 306.500 C 160.450 306.840, 160 306.416, 160 305.559 C 160 304.019, 156.121 303.504, 153.250 304.662 M 167.095 308.750 C 167.831 309.712, 168.561 310.688, 168.717 310.917 C 168.873 311.146, 169 310.358, 169 309.167 C 169 307.835, 168.375 307, 167.378 307 C 165.989 307, 165.948 307.252, 167.095 308.750 M 175.365 321.500 C 175.368 327, 175.536 329.122, 175.738 326.216 C 175.941 323.311, 175.939 318.811, 175.734 316.216 C 175.528 313.622, 175.363 316, 175.365 321.500 M 134.195 317.500 C 134.215 319.150, 134.439 319.704, 134.693 318.731 C 134.947 317.758, 134.930 316.408, 134.656 315.731 C 134.382 315.054, 134.175 315.850, 134.195 317.500 M 139.600 321.600 C 139.244 322.527, 139.178 323.511, 139.453 323.786 C 139.728 324.061, 140.244 323.527, 140.600 322.600 C 140.956 321.673, 141.022 320.689, 140.747 320.414 C 140.472 320.139, 139.956 320.673, 139.600 321.600 M 148 320.917 C 148 321.421, 148.563 322.044, 149.250 322.302 C 150.128 322.631, 149.942 323.200, 148.623 324.214 C 147.021 325.448, 146.927 325.995, 147.981 327.964 C 148.958 329.790, 149.398 329.982, 150.092 328.885 C 150.575 328.123, 150.976 326.775, 150.985 325.889 C 150.996 324.711, 151.674 324.406, 153.500 324.755 C 157.163 325.455, 156.549 323.632, 152.466 321.685 C 148.386 319.740, 148 319.673, 148 320.917 M 143.150 322.603 C 142.408 323.442, 142.028 325, 142.307 326.065 C 142.880 328.259, 141.975 328.575, 140.200 326.800 C 139.267 325.867, 139 325.867, 139 326.800 C 139 327.460, 139.477 328, 140.059 328 C 140.641 328, 140.864 328.410, 140.554 328.912 C 140.244 329.414, 140.780 329.673, 141.745 329.489 C 142.710 329.304, 143.912 329.119, 144.417 329.077 C 144.921 329.034, 145.077 328.743, 144.763 328.429 C 144.449 328.115, 144.801 326.685, 145.545 325.251 C 147.555 321.375, 145.877 319.519, 143.150 322.603 M 150.638 329.500 C 150.322 330.325, 150.574 331, 151.198 331 C 151.822 331, 152.072 331.261, 151.753 331.580 C 151.434 331.899, 150.009 331.397, 148.587 330.465 C 146.902 329.361, 146 329.180, 146 329.944 C 146 330.590, 145.480 330.797, 144.845 330.405 C 144.108 329.949, 143.963 330.132, 144.446 330.912 C 144.861 331.584, 145.457 331.877, 145.770 331.563 C 146.084 331.250, 147.339 331.647, 148.560 332.447 C 150.552 333.753, 150.954 333.708, 152.488 332.014 C 153.427 330.975, 153.900 329.648, 153.539 329.063 C 152.605 327.552, 151.311 327.748, 150.638 329.500 M 162.250 329.250 C 162.479 329.938, 163.267 330.500, 164 330.500 C 164.733 330.500, 165.521 329.938, 165.750 329.250 C 165.998 328.506, 165.289 328, 164 328 C 162.711 328, 162.002 328.506, 162.250 329.250 M 156 330.393 C 156 331.159, 156.675 332.045, 157.500 332.362 C 159.177 333.005, 159.260 332.840, 158.393 330.582 C 157.643 328.628, 156 328.498, 156 330.393 M 153.451 334.079 C 152.776 335.171, 155.060 337.243, 156.617 336.952 C 156.980 336.885, 157.588 337.334, 157.969 337.950 C 158.661 339.069, 164 340.481, 164 339.545 C 164 338.516, 157.895 335.947, 156.904 336.559 C 156.305 336.929, 156 336.461, 156.183 335.454 C 156.556 333.396, 154.510 332.366, 153.451 334.079 M 172.015 342.028 C 172.612 343.143, 173.550 343.778, 174.099 343.439 C 174.743 343.041, 174.681 342.321, 173.926 341.411 C 172.155 339.277, 170.780 339.721, 172.015 342.028" stroke="none" fill="#2a419f" fill-rule="evenodd"/></svg>