<?xml version="1.0" standalone="no"?>
<!DOCTYPE svg PUBLIC "-//W3C//DTD SVG 20010904//EN"
 "http://www.w3.org/TR/2001/REC-SVG-20010904/DTD/svg10.dtd">
<svg version="1.0" xmlns="http://www.w3.org/2000/svg"
 width="367.000000pt" height="372.000000pt" viewBox="0 0 367.000000 372.000000"
 preserveAspectRatio="xMidYMid meet">

<g transform="translate(0.000000,372.000000) scale(0.100000,-0.100000)"
fill="#000000" stroke="none">
<path d="M1775 3351 c-6 -5 -27 -19 -47 -30 -21 -12 -53 -29 -70 -40 -18 -10
-78 -45 -133 -76 -153 -88 -124 -71 -510 -295 -345 -200 -338 -196 -377 -219
-18 -10 -68 -39 -111 -65 -43 -25 -82 -46 -85 -46 -4 0 -6 -357 -4 -793 l2
-793 38 -19 c20 -10 48 -27 62 -36 14 -9 50 -30 80 -46 30 -17 92 -51 136 -77
45 -25 87 -46 93 -46 8 0 11 214 11 769 0 866 -8 786 80 834 44 24 86 47 153
86 134 78 168 97 217 124 30 16 60 33 65 37 6 4 28 18 50 30 98 56 125 71 210
120 164 96 163 96 187 81 24 -15 34 -21 218 -126 74 -42 149 -85 165 -95 17
-10 75 -44 130 -75 55 -32 115 -66 133 -76 67 -39 108 -63 152 -86 25 -14 62
-37 83 -50 l37 -26 0 -529 0 -529 -26 -24 c-15 -14 -31 -25 -35 -25 -5 0 -46
-22 -91 -49 -46 -26 -103 -59 -128 -73 -25 -14 -61 -34 -80 -45 -112 -65 -242
-140 -290 -166 -30 -16 -67 -38 -82 -49 -14 -10 -29 -18 -32 -18 -3 0 -39 -20
-79 -45 -41 -25 -82 -45 -92 -45 -19 0 -77 30 -247 129 -83 48 -166 95 -198
113 -19 11 -40 25 -47 30 -35 28 -38 7 -34 -238 1 -131 6 -242 9 -246 6 -6
116 -70 227 -133 77 -43 111 -62 188 -109 43 -25 84 -46 90 -46 7 0 39 16 72
36 59 36 92 55 170 99 22 13 81 46 130 75 122 71 153 89 205 118 25 14 83 47
130 75 47 28 109 63 138 78 30 16 66 38 82 49 15 11 31 20 34 20 4 0 25 11 47
26 22 14 56 34 75 45 19 10 51 29 72 41 20 11 55 31 77 42 22 12 44 25 50 29
5 5 25 17 43 27 l32 20 0 774 c0 426 2 780 5 788 3 9 -82 63 -257 163 -143 83
-277 160 -297 171 -201 117 -264 154 -268 154 -2 0 -24 14 -48 30 -24 17 -46
30 -49 30 -3 0 -40 21 -83 46 -87 52 -113 67 -245 143 -18 10 -49 28 -68 39
-39 24 -51 27 -65 13z"/>
<path d="M1775 2381 c-6 -5 -27 -19 -47 -30 -47 -26 -66 -37 -253 -146 -82
-48 -154 -91 -159 -96 -6 -5 -17 -9 -25 -9 -14 0 -16 -35 -13 -307 2 -170 6
-311 10 -315 6 -6 166 -98 322 -186 25 -13 76 -43 114 -65 l69 -41 31 18 c17
10 46 27 64 37 17 11 47 27 65 38 48 28 256 145 307 174 58 32 58 33 58 359 0
142 3 262 6 267 3 5 -15 20 -41 33 -27 14 -131 73 -233 133 -249 145 -250 145
-258 145 -5 0 -12 -4 -17 -9z"/>
</g>
</svg>
